<?xml version="1.0" encoding="UTF-8"?>
<svg version="1.1" xmlns="http://www.w3.org/2000/svg" width="512" height="512">
<path d="M0 0 C0.88430673 -0.00260775 1.76861346 -0.00521549 2.67971736 -0.00790226 C4.15370668 -0.00455618 4.15370668 -0.00455618 5.65747356 -0.0011425 C6.69272803 -0.00270249 7.72798249 -0.00426248 8.79460829 -0.00586975 C12.29234245 -0.00988471 15.79003383 -0.00668816 19.28776836 -0.00355339 C21.78385729 -0.00490724 24.27994601 -0.00668707 26.77603436 -0.00886345 C32.86998187 -0.01296424 38.96391236 -0.01234412 45.05785922 -0.00945081 C50.01012923 -0.00719652 54.9623958 -0.00688436 59.91466618 -0.00797462 C60.97014324 -0.00820447 60.97014324 -0.00820447 62.04694306 -0.00843897 C63.47623661 -0.00875868 64.90553015 -0.00908289 66.33482369 -0.00941156 C79.75472109 -0.01226679 93.17461167 -0.00897898 106.59450796 -0.00361119 C118.11433516 0.00085397 129.63415228 0.00008337 141.1539793 -0.00452995 C154.5197409 -0.00987998 167.88549651 -0.01198902 181.25125903 -0.00891769 C182.67634372 -0.00859913 184.10142841 -0.00828476 185.5265131 -0.00797462 C186.57835236 -0.00774321 186.57835236 -0.00774321 187.65144089 -0.00750712 C192.59736003 -0.00664304 197.54327537 -0.00810258 202.48919392 -0.01045418 C209.14653802 -0.01354977 215.80386602 -0.01134941 222.4612093 -0.00555992 C224.90900421 -0.00423443 227.35680071 -0.00462289 229.80459499 -0.00682259 C233.13781924 -0.00954239 236.4709818 -0.00614262 239.80420208 -0.0011425 C240.78016946 -0.00337322 241.75613684 -0.00560395 242.76167899 -0.00790226 C243.65380897 -0.00529452 244.54593894 -0.00268677 245.46510315 0 C246.61939929 0.00024353 246.61939929 0.00024353 247.79701453 0.00049198 C249.95728965 0.12796401 251.83781202 0.56066407 253.92131329 1.12584114 C255.42249289 1.25615945 256.92737527 1.34775491 258.43303204 1.40709114 C259.27285625 1.44447395 260.11268047 1.48185677 260.97795391 1.52037239 C262.74356017 1.59115393 264.50918554 1.66146026 266.27482891 1.73130989 C267.11078594 1.7686927 267.94674297 1.80607552 268.80803204 1.84459114 C269.57333233 1.87488411 270.33863262 1.90517708 271.12712383 1.93638802 C272.92131329 2.12584114 272.92131329 2.12584114 273.92131329 3.12584114 C275.26878413 3.35659196 276.62508894 3.53737177 277.98381329 3.68834114 C279.28318829 3.83271614 280.58256329 3.97709114 281.92131329 4.12584114 C282.25131329 5.11584114 282.58131329 6.10584114 282.92131329 7.12584114 C285.23131329 7.12584114 287.54131329 7.12584114 289.92131329 7.12584114 C289.92131329 7.78584114 289.92131329 8.44584114 289.92131329 9.12584114 C291.57131329 9.12584114 293.22131329 9.12584114 294.92131329 9.12584114 C294.92131329 9.78584114 294.92131329 10.44584114 294.92131329 11.12584114 C296.57131329 11.12584114 298.22131329 11.12584114 299.92131329 11.12584114 C300.25131329 11.78584114 300.58131329 12.44584114 300.92131329 13.12584114 C302.8039521 14.02927799 302.8039521 14.02927799 304.98381329 14.75084114 C305.71728985 15.01123177 306.45076641 15.27162239 307.20646954 15.53990364 C307.77236797 15.73326302 308.33826641 15.92662239 308.92131329 16.12584114 C308.92131329 16.78584114 308.92131329 17.44584114 308.92131329 18.12584114 C310.24131329 18.45584114 311.56131329 18.78584114 312.92131329 19.12584114 C312.92131329 19.78584114 312.92131329 20.44584114 312.92131329 21.12584114 C313.91131329 21.12584114 314.90131329 21.12584114 315.92131329 21.12584114 C315.92131329 21.78584114 315.92131329 22.44584114 315.92131329 23.12584114 C316.91131329 23.12584114 317.90131329 23.12584114 318.92131329 23.12584114 C318.92131329 23.78584114 318.92131329 24.44584114 318.92131329 25.12584114 C319.58131329 25.12584114 320.24131329 25.12584114 320.92131329 25.12584114 C321.25131329 25.78584114 321.58131329 26.44584114 321.92131329 27.12584114 C322.91131329 27.45584114 323.90131329 27.78584114 324.92131329 28.12584114 C324.92131329 28.78584114 324.92131329 29.44584114 324.92131329 30.12584114 C325.91131329 30.45584114 326.90131329 30.78584114 327.92131329 31.12584114 C327.92131329 31.78584114 327.92131329 32.44584114 327.92131329 33.12584114 C328.58131329 33.12584114 329.24131329 33.12584114 329.92131329 33.12584114 C329.92131329 33.78584114 329.92131329 34.44584114 329.92131329 35.12584114 C330.58131329 35.12584114 331.24131329 35.12584114 331.92131329 35.12584114 C334.21779978 37.68730684 334.92131329 38.60551686 334.92131329 42.12584114 C335.58131329 42.12584114 336.24131329 42.12584114 336.92131329 42.12584114 C336.92131329 42.78584114 336.92131329 43.44584114 336.92131329 44.12584114 C337.91131329 44.12584114 338.90131329 44.12584114 339.92131329 44.12584114 C339.92131329 45.11584114 339.92131329 46.10584114 339.92131329 47.12584114 C340.58131329 47.12584114 341.24131329 47.12584114 341.92131329 47.12584114 C341.92131329 48.44584114 341.92131329 49.76584114 341.92131329 51.12584114 C342.58131329 51.12584114 343.24131329 51.12584114 343.92131329 51.12584114 C343.92131329 52.11584114 343.92131329 53.10584114 343.92131329 54.12584114 C344.91131329 54.45584114 345.90131329 54.78584114 346.92131329 55.12584114 C348.87673517 58.11043244 348.92131329 59.38998905 348.92131329 63.12584114 C349.58131329 63.12584114 350.24131329 63.12584114 350.92131329 63.12584114 C354.34988471 70.41155543 354.34988471 70.41155543 353.92131329 75.12584114 C354.58131329 75.12584114 355.24131329 75.12584114 355.92131329 75.12584114 C355.92131329 78.09584114 355.92131329 81.06584114 355.92131329 84.12584114 C356.58131329 84.12584114 357.24131329 84.12584114 357.92131329 84.12584114 C359.46896878 87.22115213 359.36540779 90.49251744 359.64006329 93.91099739 C359.68788739 96.09654783 359.68788739 96.09654783 360.92131329 97.12584114 C361.01869907 98.51665726 361.0468675 99.91239059 361.04715443 101.30661201 C361.05106605 102.66719781 361.05106605 102.66719781 361.05505669 104.0552702 C361.05282597 105.06332179 361.05059525 106.07137339 361.04829693 107.109972 C361.04985692 108.17184447 361.05141691 109.23371695 361.05302417 110.32776737 C361.05703918 113.91542032 361.0538426 117.50303157 361.05070782 121.09068489 C361.05206164 123.65075391 361.05384146 126.21082274 361.05601788 128.77089119 C361.06011839 135.02024378 361.05949884 141.26958072 361.05660523 147.51893353 C361.05435144 152.59565724 361.05403858 157.67237758 361.05512905 162.74910164 C361.05528228 163.47027135 361.05543552 164.19144106 361.05559339 164.9344644 C361.0559131 166.39927713 361.05623732 167.86408987 361.05656599 169.3289026 C361.05942095 183.08062657 361.05613349 196.83234388 361.05076562 210.58406675 C361.04629756 222.39649748 361.04707349 234.20891839 361.05168438 246.02134895 C361.05702985 259.72218583 361.05914626 273.42301686 361.05607212 287.12385464 C361.05575355 288.58342997 361.05543918 290.04300531 361.05512905 291.50258064 C361.05497478 292.22081361 361.0548205 292.93904658 361.05466155 293.67904419 C361.05379631 298.75260968 361.05525942 303.82617148 361.0576086 308.8997364 C361.06069792 315.72204891 361.05851427 322.5443399 361.05271435 329.36665154 C361.05138598 331.87859631 361.05178215 334.39054264 361.05397701 336.9024868 C361.05668551 340.31558288 361.05331108 343.72861814 361.04829693 347.14171028 C361.05052765 348.14976188 361.05275837 349.15781347 361.05505669 350.19641209 C361.05244894 351.10346929 361.0498412 352.01052649 361.04715443 352.94507027 C361.04699207 353.73396676 361.04682972 354.52286325 361.04666245 355.3356657 C360.92131329 357.12584114 360.92131329 357.12584114 359.92131329 358.12584114 C359.63733477 360.93407313 359.47284664 363.74230749 359.30021954 366.55943489 C358.92131329 369.12584114 358.92131329 369.12584114 356.92131329 371.12584114 C356.46124983 373.32835106 356.46124983 373.32835106 356.29631329 375.75084114 C356.22154766 376.56810677 356.14678204 377.38537239 356.06975079 378.22740364 C356.02076641 378.85388802 355.97178204 379.48037239 355.92131329 380.12584114 C355.26131329 380.12584114 354.60131329 380.12584114 353.92131329 380.12584114 C354.01412579 381.42521614 354.01412579 381.42521614 354.10881329 382.75084114 C353.89675827 386.56783147 352.80087022 388.83661651 350.92131329 392.12584114 C350.26131329 392.12584114 349.60131329 392.12584114 348.92131329 392.12584114 C348.92131329 393.44584114 348.92131329 394.76584114 348.92131329 396.12584114 C348.26131329 396.12584114 347.60131329 396.12584114 346.92131329 396.12584114 C346.92131329 397.77584114 346.92131329 399.42584114 346.92131329 401.12584114 C345.93131329 401.12584114 344.94131329 401.12584114 343.92131329 401.12584114 C343.92131329 402.77584114 343.92131329 404.42584114 343.92131329 406.12584114 C343.26131329 406.12584114 342.60131329 406.12584114 341.92131329 406.12584114 C341.92131329 406.78584114 341.92131329 407.44584114 341.92131329 408.12584114 C341.26131329 408.12584114 340.60131329 408.12584114 339.92131329 408.12584114 C339.59131329 409.77584114 339.26131329 411.42584114 338.92131329 413.12584114 C338.26131329 413.12584114 337.60131329 413.12584114 336.92131329 413.12584114 C336.92131329 413.78584114 336.92131329 414.44584114 336.92131329 415.12584114 C336.26131329 415.12584114 335.60131329 415.12584114 334.92131329 415.12584114 C334.92131329 416.11584114 334.92131329 417.10584114 334.92131329 418.12584114 C334.26131329 418.12584114 333.60131329 418.12584114 332.92131329 418.12584114 C332.45725079 419.05396614 332.45725079 419.05396614 331.98381329 420.00084114 C331.29631329 421.37584114 330.60881329 422.75084114 329.92131329 424.12584114 C329.26131329 424.12584114 328.60131329 424.12584114 327.92131329 424.12584114 C327.59131329 425.11584114 327.26131329 426.10584114 326.92131329 427.12584114 C326.26131329 427.12584114 325.60131329 427.12584114 324.92131329 427.12584114 C324.92131329 427.78584114 324.92131329 428.44584114 324.92131329 429.12584114 C324.26131329 429.12584114 323.60131329 429.12584114 322.92131329 429.12584114 C322.92131329 429.78584114 322.92131329 430.44584114 322.92131329 431.12584114 C320.35984758 433.42232763 319.44163756 434.12584114 315.92131329 434.12584114 C315.92131329 434.78584114 315.92131329 435.44584114 315.92131329 436.12584114 C315.26131329 436.12584114 314.60131329 436.12584114 313.92131329 436.12584114 C313.92131329 437.11584114 313.92131329 438.10584114 313.92131329 439.12584114 C312.93131329 439.12584114 311.94131329 439.12584114 310.92131329 439.12584114 C310.92131329 439.78584114 310.92131329 440.44584114 310.92131329 441.12584114 C309.60131329 441.12584114 308.28131329 441.12584114 306.92131329 441.12584114 C306.92131329 441.78584114 306.92131329 442.44584114 306.92131329 443.12584114 C305.93131329 443.12584114 304.94131329 443.12584114 303.92131329 443.12584114 C303.59131329 444.11584114 303.26131329 445.10584114 302.92131329 446.12584114 C299.93672199 448.08126302 298.65716538 448.12584114 294.92131329 448.12584114 C294.92131329 448.78584114 294.92131329 449.44584114 294.92131329 450.12584114 C293.27131329 450.12584114 291.62131329 450.12584114 289.92131329 450.12584114 C289.59131329 451.11584114 289.26131329 452.10584114 288.92131329 453.12584114 C286.94131329 453.12584114 284.96131329 453.12584114 282.92131329 453.12584114 C282.92131329 453.78584114 282.92131329 454.44584114 282.92131329 455.12584114 C280.61131329 455.12584114 278.30131329 455.12584114 275.92131329 455.12584114 C275.92131329 455.78584114 275.92131329 456.44584114 275.92131329 457.12584114 C275.13885235 457.25861458 274.35639141 457.39138802 273.55021954 457.52818489 C272.53830547 457.70478645 271.52639141 457.88138802 270.48381329 458.06334114 C269.47447735 458.23736458 268.46514141 458.41138802 267.42521954 458.59068489 C264.99256949 458.87335211 264.99256949 458.87335211 263.92131329 460.12584114 C262.43518477 460.22440194 260.94437833 460.25323316 259.45498562 460.25447559 C257.99882324 460.25931226 257.99882324 460.25931226 256.51324344 460.26424664 C255.4339923 460.26269804 254.35474117 460.26114944 253.24278545 460.25955391 C252.10614775 460.26181947 250.96951005 460.26408502 249.79842877 460.26641923 C246.6292913 460.27167744 243.46018924 460.2724002 240.29104877 460.27122486 C236.87852838 460.27102158 233.4660166 460.27653268 230.05350018 460.28128242 C223.36164551 460.28960622 216.66979964 460.29233807 209.97794023 460.2928948 C204.53940846 460.29336926 199.1008796 460.2954205 193.66234875 460.29859543 C178.25441331 460.30740767 162.84648484 460.31201406 147.43854687 460.31126495 C146.60705412 460.311225 145.77556138 460.31118504 144.91887188 460.31114388 C144.08636741 460.31110299 143.25386294 460.31106211 142.39613107 460.31101999 C128.90715302 460.31061363 115.4182029 460.32017915 101.92923293 460.33428224 C88.08991326 460.34863778 74.25060722 460.35555284 60.41127992 460.35468847 C52.63719489 460.35435615 44.86313912 460.3571181 37.08906078 460.36786652 C30.46867261 460.37696084 23.84832694 460.37915568 17.22793522 460.37235709 C13.84911589 460.3690861 10.47044492 460.37013716 7.09162235 460.37771034 C3.43026645 460.38538678 -0.23087332 460.38081418 -3.89222431 460.3730793 C-4.96255256 460.37822286 -6.03288081 460.38336643 -7.13564324 460.38866585 C-8.11684915 460.38406706 -9.09805506 460.37946826 -10.10899448 460.37473011 C-11.37663714 460.37505616 -11.37663714 460.37505616 -12.66988873 460.3753888 C-15.42800925 460.08965188 -17.5379014 459.21100378 -20.07868671 458.12584114 C-22.07111921 457.74991048 -24.07055412 457.40604569 -26.07868671 457.12584114 C-26.07868671 456.46584114 -26.07868671 455.80584114 -26.07868671 455.12584114 C-28.38868671 455.12584114 -30.69868671 455.12584114 -33.07868671 455.12584114 C-33.07868671 454.46584114 -33.07868671 453.80584114 -33.07868671 453.12584114 C-34.72868671 453.12584114 -36.37868671 453.12584114 -38.07868671 453.12584114 C-38.57368671 451.64084114 -38.57368671 451.64084114 -39.07868671 450.12584114 C-39.73868671 450.20834114 -40.39868671 450.29084114 -41.07868671 450.37584114 C-45.29112366 450.02480473 -48.42579348 448.15623341 -52.07868671 446.12584114 C-52.07868671 445.13584114 -52.07868671 444.14584114 -52.07868671 443.12584114 C-53.72868671 443.12584114 -55.37868671 443.12584114 -57.07868671 443.12584114 C-57.07868671 442.46584114 -57.07868671 441.80584114 -57.07868671 441.12584114 C-57.73868671 441.12584114 -58.39868671 441.12584114 -59.07868671 441.12584114 C-59.07868671 440.46584114 -59.07868671 439.80584114 -59.07868671 439.12584114 C-60.72868671 438.79584114 -62.37868671 438.46584114 -64.07868671 438.12584114 C-64.07868671 437.46584114 -64.07868671 436.80584114 -64.07868671 436.12584114 C-64.73868671 436.12584114 -65.39868671 436.12584114 -66.07868671 436.12584114 C-66.07868671 435.46584114 -66.07868671 434.80584114 -66.07868671 434.12584114 C-67.06868671 434.12584114 -68.05868671 434.12584114 -69.07868671 434.12584114 C-69.07868671 433.46584114 -69.07868671 432.80584114 -69.07868671 432.12584114 C-69.73868671 432.12584114 -70.39868671 432.12584114 -71.07868671 432.12584114 C-71.07868671 431.13584114 -71.07868671 430.14584114 -71.07868671 429.12584114 C-72.06868671 429.12584114 -73.05868671 429.12584114 -74.07868671 429.12584114 C-74.07868671 428.46584114 -74.07868671 427.80584114 -74.07868671 427.12584114 C-74.73868671 427.12584114 -75.39868671 427.12584114 -76.07868671 427.12584114 C-76.07868671 426.46584114 -76.07868671 425.80584114 -76.07868671 425.12584114 C-76.73868671 425.12584114 -77.39868671 425.12584114 -78.07868671 425.12584114 C-78.07868671 424.13584114 -78.07868671 423.14584114 -78.07868671 422.12584114 C-79.06868671 422.12584114 -80.05868671 422.12584114 -81.07868671 422.12584114 C-81.07868671 421.46584114 -81.07868671 420.80584114 -81.07868671 420.12584114 C-81.73868671 420.12584114 -82.39868671 420.12584114 -83.07868671 420.12584114 C-83.34681171 419.32146614 -83.61493671 418.51709114 -83.89118671 417.68834114 C-84.28306171 416.84271614 -84.67493671 415.99709114 -85.07868671 415.12584114 C-86.06868671 414.79584114 -87.05868671 414.46584114 -88.07868671 414.12584114 C-88.07868671 413.13584114 -88.07868671 412.14584114 -88.07868671 411.12584114 C-88.73868671 411.12584114 -89.39868671 411.12584114 -90.07868671 411.12584114 C-90.07868671 410.13584114 -90.07868671 409.14584114 -90.07868671 408.12584114 C-90.73868671 408.12584114 -91.39868671 408.12584114 -92.07868671 408.12584114 C-92.07868671 407.13584114 -92.07868671 406.14584114 -92.07868671 405.12584114 C-92.73868671 405.12584114 -93.39868671 405.12584114 -94.07868671 405.12584114 C-94.57368671 403.14584114 -94.57368671 403.14584114 -95.07868671 401.12584114 C-95.73868671 401.12584114 -96.39868671 401.12584114 -97.07868671 401.12584114 C-97.07868671 399.47584114 -97.07868671 397.82584114 -97.07868671 396.12584114 C-97.73868671 396.12584114 -98.39868671 396.12584114 -99.07868671 396.12584114 C-99.07868671 394.80584114 -99.07868671 393.48584114 -99.07868671 392.12584114 C-100.06868671 391.79584114 -101.05868671 391.46584114 -102.07868671 391.12584114 C-104.09298755 387.41528697 -104.27270916 384.29732379 -104.07868671 380.12584114 C-104.73868671 380.12584114 -105.39868671 380.12584114 -106.07868671 380.12584114 C-106.27399921 378.10761197 -106.46931171 376.08938281 -106.66462421 374.07115364 C-106.94243421 371.89915869 -106.94243421 371.89915869 -109.07868671 370.12584114 C-109.45759296 367.77818489 -109.45759296 367.77818489 -109.64118671 365.06334114 C-109.61850624 361.7874455 -109.61850624 361.7874455 -111.07868671 359.12584114 C-111.17618401 357.69852128 -111.20424116 356.26639455 -111.20452785 354.83574867 C-111.2071356 353.9043077 -111.20974335 352.97286674 -111.21243012 352.01320028 C-111.2101994 350.97791205 -111.20796868 349.94262382 -111.20567036 348.87596321 C-111.20723035 347.78550587 -111.20879034 346.69504853 -111.2103976 345.57154703 C-111.21441275 341.8871577 -111.21121597 338.20280897 -111.20808125 334.51841927 C-111.20943506 331.88938561 -111.21121488 329.26035215 -111.2133913 326.63131905 C-111.21784968 320.21352359 -111.21687224 313.7957398 -111.21397866 307.37794387 C-111.21172489 302.16439714 -111.21141199 296.95085368 -111.21250248 291.73730659 C-111.21265571 290.99670936 -111.21280895 290.25611212 -111.21296682 289.49307254 C-111.21328653 287.9888008 -111.21361074 286.48452907 -111.21393941 284.98025733 C-111.2167944 270.85798757 -111.21350689 256.73572429 -111.20813905 242.61345559 C-111.20367099 230.48265248 -111.20444692 218.35185893 -111.20905781 206.22105598 C-111.21440324 192.15105516 -111.21651971 178.08106003 -111.21344554 164.01105833 C-111.21312698 162.51216412 -111.21281261 161.0132699 -111.21250248 159.51437569 C-111.2123482 158.77679395 -111.21219393 158.0392122 -111.21203498 157.2792795 C-111.21116973 152.0689574 -111.21263287 146.85863888 -111.21498203 141.64831734 C-111.21807129 134.64215176 -111.21588778 127.63600463 -111.21008778 120.62984085 C-111.20875938 118.05016866 -111.20915562 115.47049496 -111.21135044 112.89082336 C-111.21405885 109.38576758 -111.21068463 105.88077102 -111.20567036 102.37571907 C-111.20790108 101.34043084 -111.2101318 100.3051426 -111.21243012 99.238482 C-111.20982237 98.30704103 -111.20721462 97.37560006 -111.20452785 96.41593361 C-111.2043655 95.60577278 -111.20420315 94.79561194 -111.20403588 93.96090078 C-111.07868671 92.12584114 -111.07868671 92.12584114 -110.07868671 91.12584114 C-109.84675807 89.61114666 -109.66653433 88.08829552 -109.51618671 86.56334114 C-109.39050312 85.32390755 -109.39050312 85.32390755 -109.26228046 84.05943489 C-109.20169453 83.42134895 -109.14110859 82.78326302 -109.07868671 82.12584114 C-108.08868671 82.12584114 -107.09868671 82.12584114 -106.07868671 82.12584114 C-106.07868671 79.81584114 -106.07868671 77.50584114 -106.07868671 75.12584114 C-105.41868671 75.12584114 -104.75868671 75.12584114 -104.07868671 75.12584114 C-104.07868671 72.81584114 -104.07868671 70.50584114 -104.07868671 68.12584114 C-103.41868671 68.12584114 -102.75868671 68.12584114 -102.07868671 68.12584114 C-101.74868671 66.47584114 -101.41868671 64.82584114 -101.07868671 63.12584114 C-100.41868671 63.12584114 -99.75868671 63.12584114 -99.07868671 63.12584114 C-99.07868671 61.47584114 -99.07868671 59.82584114 -99.07868671 58.12584114 C-98.41868671 58.12584114 -97.75868671 58.12584114 -97.07868671 58.12584114 C-97.07868671 56.80584114 -97.07868671 55.48584114 -97.07868671 54.12584114 C-96.41868671 54.12584114 -95.75868671 54.12584114 -95.07868671 54.12584114 C-94.74868671 53.13584114 -94.41868671 52.14584114 -94.07868671 51.12584114 C-93.41868671 51.12584114 -92.75868671 51.12584114 -92.07868671 51.12584114 C-92.07868671 49.80584114 -92.07868671 48.48584114 -92.07868671 47.12584114 C-91.41868671 47.12584114 -90.75868671 47.12584114 -90.07868671 47.12584114 C-90.07868671 46.13584114 -90.07868671 45.14584114 -90.07868671 44.12584114 C-89.41868671 44.12584114 -88.75868671 44.12584114 -88.07868671 44.12584114 C-88.07868671 43.46584114 -88.07868671 42.80584114 -88.07868671 42.12584114 C-87.08868671 42.12584114 -86.09868671 42.12584114 -85.07868671 42.12584114 C-84.95493671 41.52771614 -84.83118671 40.92959114 -84.70368671 40.31334114 C-84.07868671 38.12584114 -84.07868671 38.12584114 -82.07868671 35.12584114 C-81.41868671 35.12584114 -80.75868671 35.12584114 -80.07868671 35.12584114 C-80.07868671 34.46584114 -80.07868671 33.80584114 -80.07868671 33.12584114 C-79.41868671 33.12584114 -78.75868671 33.12584114 -78.07868671 33.12584114 C-77.74868671 32.13584114 -77.41868671 31.14584114 -77.07868671 30.12584114 C-76.41868671 30.12584114 -75.75868671 30.12584114 -75.07868671 30.12584114 C-75.07868671 29.46584114 -75.07868671 28.80584114 -75.07868671 28.12584114 C-73.75868671 28.12584114 -72.43868671 28.12584114 -71.07868671 28.12584114 C-71.07868671 27.13584114 -71.07868671 26.14584114 -71.07868671 25.12584114 C-70.41868671 25.12584114 -69.75868671 25.12584114 -69.07868671 25.12584114 C-69.07868671 24.46584114 -69.07868671 23.80584114 -69.07868671 23.12584114 C-68.08868671 23.12584114 -67.09868671 23.12584114 -66.07868671 23.12584114 C-66.07868671 22.46584114 -66.07868671 21.80584114 -66.07868671 21.12584114 C-65.08868671 20.79584114 -64.09868671 20.46584114 -63.07868671 20.12584114 C-62.74868671 19.46584114 -62.41868671 18.80584114 -62.07868671 18.12584114 C-61.08868671 18.12584114 -60.09868671 18.12584114 -59.07868671 18.12584114 C-59.07868671 17.46584114 -59.07868671 16.80584114 -59.07868671 16.12584114 C-57.75868671 16.12584114 -56.43868671 16.12584114 -55.07868671 16.12584114 C-55.07868671 15.46584114 -55.07868671 14.80584114 -55.07868671 14.12584114 C-53.5174925 13.33160253 -51.95466707 12.54056991 -50.39118671 11.75084114 C-49.52106953 11.30998177 -48.65095234 10.86912239 -47.75446796 10.41490364 C-44.09232513 8.65065965 -40.85946836 7.24596139 -36.82868671 6.62584114 C-35.46743671 6.37834114 -35.46743671 6.37834114 -34.07868671 6.12584114 C-33.74868671 5.46584114 -33.41868671 4.80584114 -33.07868671 4.12584114 C-27.00240575 1.9536399 -20.46233558 1.7674984 -14.07868671 1.56334114 C-9.03616998 1.38514694 -4.76960881 0.00100691 0 0 Z " fill="#2C5220" transform="translate(131.07868671417236,23.87415885925293)"/>
<path d="M0 0 C13.53478022 -0.54953243 13.53478022 -0.54953243 20 3 C21.39503182 3.66834224 22.79089555 4.33495026 24.1875 5 C29.74308693 7.83712498 29.74308693 7.83712498 32 10 C32 10.99 32 11.98 32 13 C32.99 13 33.98 13 35 13 C35 13.66 35 14.32 35 15 C35.55171875 15.06703125 36.1034375 15.1340625 36.671875 15.203125 C39.97091091 16.33232521 41.78160992 18.31047998 44.25 20.75 C45.14203125 21.61109375 46.0340625 22.4721875 46.953125 23.359375 C49 26 49 26 49.296875 28.828125 C49.19890625 29.54484375 49.1009375 30.2615625 49 31 C49.8971875 31.12375 49.8971875 31.12375 50.8125 31.25 C53.65025411 32.22294427 54.49676067 33.44449313 56 36 C56 36.99 56 37.98 56 39 C56.66 39 57.32 39 58 39 C63.0123924 43.76177278 64.52758023 48.15420804 65 55 C65.09953876 63.61751549 64.84476815 72.14329987 61 80 C60.34 80 59.68 80 59 80 C58.814375 81.175625 58.814375 81.175625 58.625 82.375 C58 85 58 85 56 87 C54.03334045 87.26501465 54.03334045 87.26501465 51.59790039 87.28710938 C50.23121971 87.30723083 50.23121971 87.30723083 48.83692932 87.32775879 C47.85046921 87.33303589 46.86400909 87.33831299 45.84765625 87.34375 C44.8365831 87.3583728 43.82550995 87.37299561 42.78379822 87.38806152 C39.5434057 87.4346834 36.30307572 87.46881525 33.0625 87.5 C28.80315519 87.54105545 24.54424878 87.59471044 20.28515625 87.65625 C18.80850243 87.66416565 18.80850243 87.66416565 17.30201721 87.67224121 C15.93060829 87.69236267 15.93060829 87.69236267 14.53149414 87.71289062 C13.72700333 87.72018188 12.92251251 87.72747314 12.09364319 87.73498535 C9.69648471 87.88036146 9.69648471 87.88036146 7 90 C4.47443489 90.58845385 1.98620796 91.10677076 -0.5625 91.5625 C-5.41762328 92.33552171 -5.41762328 92.33552171 -10 94 C-12.3329866 94.04022391 -14.66706666 94.04320247 -17 94 C-17 94.66 -17 95.32 -17 96 C-18.65 96 -20.3 96 -22 96 C-22 96.66 -22 97.32 -22 98 C-24.5614657 100.29648649 -25.47967572 101 -29 101 C-29 101.66 -29 102.32 -29 103 C-30.26091517 104.05858227 -31.55959859 105.07243808 -32.875 106.0625 C-37.38970969 109.84336995 -38.47813377 113.24642477 -39 119 C-39.66 119 -40.32 119 -41 119 C-40.63704544 127.34795498 -39.73055459 135.16313502 -37.62109375 143.2578125 C-37 146 -37 146 -37 150 C-36.34 150 -35.68 150 -35 150 C-34.84180786 150.85996582 -34.84180786 150.85996582 -34.68041992 151.73730469 C-31.91393525 169.43392963 -31.91393525 169.43392963 -26.5 186.375 C-24.54508226 191.09938455 -23.69794286 195.87862857 -22.74609375 200.890625 C-22.15540952 204.14090654 -22.15540952 204.14090654 -20 207 C-19.63858045 209.32914823 -19.30300475 211.66253478 -19 214 C-18.67 214.33 -18.34 214.66 -18 215 C-17.83792431 216.76782555 -17.72156249 218.53988854 -17.625 220.3125 C-17.05796461 227.79027927 -15.23580764 234.69799038 -13.171875 241.8828125 C-9.57962506 254.52612357 -7.21078275 269.65919944 -13 282 C-14.29296875 283.8359375 -14.29296875 283.8359375 -16 285 C-18.6875 284.6875 -18.6875 284.6875 -21 284 C-21.03738281 282.88882812 -21.07476562 281.77765625 -21.11328125 280.6328125 C-20.96381439 267.45498065 -20.96381439 267.45498065 -26 256 C-26.33362655 254.15292209 -26.61498633 252.29636965 -26.875 250.4375 C-27.67191149 245.0672681 -28.53448414 239.71707352 -29.5 234.375 C-29.61843262 233.68849365 -29.73686523 233.0019873 -29.85888672 232.29467773 C-30.47680616 228.93133468 -31.07224009 226.89163987 -33 224 C-33.73443123 221.66884986 -34.39068539 219.36394072 -35 217 C-35.30188232 215.84757812 -35.30188232 215.84757812 -35.60986328 214.671875 C-36.27209386 212.11734188 -36.91886103 209.55927661 -37.5625 207 C-37.89411133 205.70449219 -37.89411133 205.70449219 -38.23242188 204.3828125 C-39.43642191 199.59591206 -40.32586326 194.89508302 -41 190 C-41.40888275 188.52703685 -41.86190419 187.06497856 -42.375 185.625 C-42.63796875 184.86574219 -42.9009375 184.10648438 -43.171875 183.32421875 C-43.7206662 181.78397929 -44.27271239 180.24489542 -44.828125 178.70703125 C-46.56635381 173.75648743 -47.44130691 169.21446882 -48 164 C-48.33 163.67 -48.66 163.34 -49 163 C-52.73743734 148.92081839 -54.35132034 134.56257356 -53 120 C-52.505 119.505 -52.505 119.505 -52 119 C-51.86294102 117.0019846 -51.76709035 115.0011287 -51.6875 113 C-50.74285399 98.72857881 -47.66000452 81.99436312 -38 71 C-36.62318279 70.04934049 -35.24060935 69.10464261 -33.81640625 68.2265625 C-31.50315264 66.66449447 -29.44293484 64.86543535 -27.3125 63.0625 C-20.00642509 57.16270718 -12.11686087 53.94293756 -3 52 C-1.6868938 51.64808754 -0.37440012 51.29388232 0.9375 50.9375 C5.24624244 49.84960678 9.58013662 49.38878428 14 49 C14 47.68 14 46.36 14 45 C13.278125 44.896875 12.55625 44.79375 11.8125 44.6875 C8.74041242 43.93654526 6.63996279 42.7124083 4 41 C3.01 40.505 3.01 40.505 2 40 C2 39.34 2 38.68 2 38 C-5.65787496 38.28153952 -12.95202583 38.80855333 -18.54296875 44.59765625 C-19.02378906 45.14292969 -19.50460938 45.68820313 -20 46.25 C-21.73839706 48.15122213 -22.56092193 48.91315831 -25.11328125 49.41796875 C-27.3125 49.4375 -27.3125 49.4375 -31 49 C-32 48 -32 48 -32.125 44.5625 C-32 41 -32 41 -31 39 C-30.34 39 -29.68 39 -29 39 C-28.979375 37.948125 -28.95875 36.89625 -28.9375 35.8125 C-28.0697447 28.67904098 -23.91505138 20.87828497 -18.83203125 15.859375 C-16.84015674 14.18912206 -16.84015674 14.18912206 -16.6484375 12.015625 C-15.5692585 8.66106858 -12.5227064 7.43616536 -9.625 5.75 C-9.03460938 5.38648438 -8.44421875 5.02296875 -7.8359375 4.6484375 C-5.01472755 2.95825316 -3.34370944 2 0 2 C0 1.34 0 0.68 0 0 Z " fill="#FBFCFB" transform="translate(251,144)"/>
<path d="M0 0 C1.39961191 0.00186888 2.79922448 0.00329056 4.19883728 0.00428772 C7.85332091 0.00807589 11.50776375 0.01787385 15.16223145 0.0289917 C18.90307056 0.03928609 22.64391638 0.04380241 26.38476562 0.04882812 C33.70314344 0.05950005 41.02148784 0.0765311 48.33984375 0.09765625 C48.33984375 1.41765625 48.33984375 2.73765625 48.33984375 4.09765625 C48.99984375 4.09765625 49.65984375 4.09765625 50.33984375 4.09765625 C50.32824219 4.731875 50.31664062 5.36609375 50.3046875 6.01953125 C50.23108495 13.63213772 50.56671338 21.18881388 50.98413086 28.78637695 C51.2711092 34.169395 51.41946525 39.51451551 51.27734375 44.90625 C51.27717279 47.19315657 51.27717279 47.19315657 51.90234375 49.7578125 C52.33984375 52.09765625 52.33984375 52.09765625 51.33984375 54.09765625 C51.14717985 57.73196388 51.14717985 57.73196388 52.33984375 61.09765625 C52.51457087 66.25210641 52.18660964 71.01706093 51.33984375 76.09765625 C52.32984375 76.09765625 53.31984375 76.09765625 54.33984375 76.09765625 C54.60796875 75.45828125 54.87609375 74.81890625 55.15234375 74.16015625 C56.33984375 72.09765625 56.33984375 72.09765625 59.33984375 71.09765625 C59.33984375 70.43765625 59.33984375 69.77765625 59.33984375 69.09765625 C59.99984375 69.09765625 60.65984375 69.09765625 61.33984375 69.09765625 C61.83484375 67.61265625 61.83484375 67.61265625 62.33984375 66.09765625 C64.27734375 63.91015625 64.27734375 63.91015625 66.33984375 62.09765625 C66.99984375 62.09765625 67.65984375 62.09765625 68.33984375 62.09765625 C68.33984375 61.43765625 68.33984375 60.77765625 68.33984375 60.09765625 C69.6953125 58.80078125 69.6953125 58.80078125 71.52734375 57.34765625 C74.02642458 55.29375581 76.14471989 53.25923489 78.15234375 50.72265625 C78.87421875 49.85640625 79.59609375 48.99015625 80.33984375 48.09765625 C80.99984375 48.09765625 81.65984375 48.09765625 82.33984375 48.09765625 C82.33984375 47.43765625 82.33984375 46.77765625 82.33984375 46.09765625 C84.71484375 43.47265625 84.71484375 43.47265625 87.33984375 41.09765625 C87.99984375 41.09765625 88.65984375 41.09765625 89.33984375 41.09765625 C89.33984375 40.43765625 89.33984375 39.77765625 89.33984375 39.09765625 C90.6953125 37.765625 90.6953125 37.765625 92.52734375 36.28515625 C96.46196863 33.02481185 100.01601519 29.49713215 103.52734375 25.78515625 C105.33984375 24.09765625 105.33984375 24.09765625 107.33984375 24.09765625 C107.71109375 23.23140625 107.71109375 23.23140625 108.08984375 22.34765625 C109.50667692 19.79735655 111.21611912 18.07979924 113.33984375 16.09765625 C113.99984375 16.42765625 114.65984375 16.75765625 115.33984375 17.09765625 C114.62699219 17.87109375 113.91414062 18.64453125 113.1796875 19.44140625 C106.97070203 26.17516389 106.97070203 26.17516389 100.90234375 33.03515625 C93.01357934 42.10162719 84.75278645 50.75616459 76.21191406 59.20629883 C72.64086877 62.75289174 69.24560156 66.37630007 65.99609375 70.22265625 C63.24031269 73.3424084 60.24078114 76.21636601 57.2578125 79.1171875 C55.17667308 81.14700902 55.17667308 81.14700902 53.33984375 84.09765625 C54.00852689 87.21097873 54.00852689 87.21097873 56.40234375 88.28515625 C57.04171875 88.55328125 57.68109375 88.82140625 58.33984375 89.09765625 C57.34984375 91.07765625 57.34984375 91.07765625 56.33984375 93.09765625 C53.40234375 91.78515625 53.40234375 91.78515625 50.33984375 90.09765625 C50.00984375 89.10765625 49.67984375 88.11765625 49.33984375 87.09765625 C43.78520304 91.83454321 38.53162148 96.78053617 33.40234375 101.97265625 C32.67797119 102.70081543 31.95359863 103.42897461 31.20727539 104.17919922 C28.91566072 106.48291271 26.62733723 108.78985099 24.33984375 111.09765625 C21.32199294 114.14230404 18.30070959 117.18348592 15.27734375 120.22265625 C14.26136108 121.25108643 14.26136108 121.25108643 13.22485352 122.30029297 C8.76799348 126.77965409 4.13952321 130.98924146 -0.66015625 135.09765625 C-1.49546875 135.82855469 -2.33078125 136.55945313 -3.19140625 137.3125 C-5.01432292 138.90755208 -6.83723958 140.50260417 -8.66015625 142.09765625 C-9.32015625 141.76765625 -9.98015625 141.43765625 -10.66015625 141.09765625 C-9.7257409 139.82455313 -8.78748514 138.55426825 -7.84765625 137.28515625 C-7.06455078 136.22361328 -7.06455078 136.22361328 -6.265625 135.140625 C-4.81763127 133.29804418 -3.4291412 131.63400756 -1.66015625 130.09765625 C-1.00015625 130.09765625 -0.34015625 130.09765625 0.33984375 130.09765625 C0.33984375 129.43765625 0.33984375 128.77765625 0.33984375 128.09765625 C2.71484375 125.47265625 2.71484375 125.47265625 5.33984375 123.09765625 C5.99984375 123.09765625 6.65984375 123.09765625 7.33984375 123.09765625 C7.60796875 122.49953125 7.87609375 121.90140625 8.15234375 121.28515625 C10.19404514 117.52412737 12.64672283 115.81747196 16.44140625 113.97265625 C22.10687939 110.90701343 26.26156268 106.69266654 30.71484375 102.09765625 C31.50761719 101.30359375 32.30039062 100.50953125 33.1171875 99.69140625 C39.67403372 93.63361662 39.67403372 93.63361662 42.33984375 85.59765625 C40.96748956 82.16677077 39.18596339 80.43779907 36.33984375 78.09765625 C35.39109375 77.78828125 34.44234375 77.47890625 33.46484375 77.16015625 C29.31680043 75.74982152 26.298096 73.31847527 23.33984375 70.09765625 C23.33984375 69.43765625 23.33984375 68.77765625 23.33984375 68.09765625 C22.01984375 67.76765625 20.69984375 67.43765625 19.33984375 67.09765625 C19.33984375 66.43765625 19.33984375 65.77765625 19.33984375 65.09765625 C18.67984375 65.09765625 18.01984375 65.09765625 17.33984375 65.09765625 C17.33984375 64.43765625 17.33984375 63.77765625 17.33984375 63.09765625 C16.34984375 63.09765625 15.35984375 63.09765625 14.33984375 63.09765625 C12.95625135 61.81655218 11.63764007 60.46560372 10.33984375 59.09765625 C9.07938643 57.96104299 7.80740274 56.83714777 6.52734375 55.72265625 C5.84027344 55.12324219 5.15320313 54.52382813 4.4453125 53.90625 C3.06304724 52.71888671 1.67003577 51.54389786 0.265625 50.3828125 C-0.36988281 49.85558594 -1.00539063 49.32835937 -1.66015625 48.78515625 C-2.23765625 48.31464844 -2.81515625 47.84414063 -3.41015625 47.359375 C-4.66015625 46.09765625 -4.66015625 46.09765625 -4.66015625 44.09765625 C-5.65015625 44.09765625 -6.64015625 44.09765625 -7.66015625 44.09765625 C-7.66015625 43.43765625 -7.66015625 42.77765625 -7.66015625 42.09765625 C-8.27890625 41.78828125 -8.89765625 41.47890625 -9.53515625 41.16015625 C-10.91015625 40.47265625 -12.28515625 39.78515625 -13.66015625 39.09765625 C-13.66015625 38.43765625 -13.66015625 37.77765625 -13.66015625 37.09765625 C-14.32015625 37.09765625 -14.98015625 37.09765625 -15.66015625 37.09765625 C-17.28515625 35.72265625 -17.28515625 35.72265625 -18.66015625 34.09765625 C-18.66015625 33.43765625 -18.66015625 32.77765625 -18.66015625 32.09765625 C-19.32015625 32.09765625 -19.98015625 32.09765625 -20.66015625 32.09765625 C-20.66015625 31.43765625 -20.66015625 30.77765625 -20.66015625 30.09765625 C-21.29953125 29.82953125 -21.93890625 29.56140625 -22.59765625 29.28515625 C-24.66015625 28.09765625 -24.66015625 28.09765625 -25.66015625 25.09765625 C-26.32015625 24.76765625 -26.98015625 24.43765625 -27.66015625 24.09765625 C-26.67015625 24.09765625 -25.68015625 24.09765625 -24.66015625 24.09765625 C-24.66015625 24.75765625 -24.66015625 25.41765625 -24.66015625 26.09765625 C-24.00015625 26.09765625 -23.34015625 26.09765625 -22.66015625 26.09765625 C-21.03515625 27.47265625 -21.03515625 27.47265625 -19.66015625 29.09765625 C-19.66015625 29.75765625 -19.66015625 30.41765625 -19.66015625 31.09765625 C-18.73203125 31.31421875 -18.73203125 31.31421875 -17.78515625 31.53515625 C-15.66015625 32.09765625 -15.66015625 32.09765625 -13.66015625 33.09765625 C-13.66015625 34.08765625 -13.66015625 35.07765625 -13.66015625 36.09765625 C-12.67015625 36.09765625 -11.68015625 36.09765625 -10.66015625 36.09765625 C-10.66015625 36.75765625 -10.66015625 37.41765625 -10.66015625 38.09765625 C-9.67015625 38.09765625 -8.68015625 38.09765625 -7.66015625 38.09765625 C-7.66015625 38.75765625 -7.66015625 39.41765625 -7.66015625 40.09765625 C-6.17515625 40.59265625 -6.17515625 40.59265625 -4.66015625 41.09765625 C-4.66015625 41.75765625 -4.66015625 42.41765625 -4.66015625 43.09765625 C-3.67015625 43.09765625 -2.68015625 43.09765625 -1.66015625 43.09765625 C-1.66015625 43.75765625 -1.66015625 44.41765625 -1.66015625 45.09765625 C-0.89703125 45.36578125 -0.13390625 45.63390625 0.65234375 45.91015625 C3.22972993 47.0490013 4.60939239 47.91182296 6.33984375 50.09765625 C6.33984375 50.75765625 6.33984375 51.41765625 6.33984375 52.09765625 C7.32984375 52.09765625 8.31984375 52.09765625 9.33984375 52.09765625 C9.33984375 52.75765625 9.33984375 53.41765625 9.33984375 54.09765625 C9.95859375 54.40703125 10.57734375 54.71640625 11.21484375 55.03515625 C12.58984375 55.72265625 13.96484375 56.41015625 15.33984375 57.09765625 C15.33984375 57.75765625 15.33984375 58.41765625 15.33984375 59.09765625 C15.85546875 59.32453125 16.37109375 59.55140625 16.90234375 59.78515625 C20.2353138 61.57983243 23.48688046 63.5973064 26.33984375 66.09765625 C26.33984375 66.75765625 26.33984375 67.41765625 26.33984375 68.09765625 C27.26796875 68.56171875 27.26796875 68.56171875 28.21484375 69.03515625 C29.58984375 69.72265625 30.96484375 70.41015625 32.33984375 71.09765625 C32.33984375 71.75765625 32.33984375 72.41765625 32.33984375 73.09765625 C33.17515625 73.49984375 33.17515625 73.49984375 34.02734375 73.91015625 C36.55209709 75.20665121 38.97698859 76.52241948 41.33984375 78.09765625 C41.33984375 78.75765625 41.33984375 79.41765625 41.33984375 80.09765625 C42.29890625 80.56171875 42.29890625 80.56171875 43.27734375 81.03515625 C45.33984375 82.09765625 45.33984375 82.09765625 46.33984375 83.09765625 C46.66984375 57.02765625 46.99984375 30.95765625 47.33984375 4.09765625 C29.00022949 4.1372513 29.00022949 4.1372513 10.66064453 4.18774414 C8.36881558 4.19066357 6.0769861 4.19321206 3.78515625 4.1953125 C1.98679321 4.20298645 1.98679321 4.20298645 0.15209961 4.21081543 C-0.98461182 4.21093628 -2.12132324 4.21105713 -3.29248047 4.21118164 C-4.28287323 4.21340225 -5.27326599 4.21562286 -6.29367065 4.21791077 C-8.66015625 4.09765625 -8.66015625 4.09765625 -10.66015625 3.09765625 C-11.2634375 3.26136719 -11.86671875 3.42507813 -12.48828125 3.59375 C-15.12479943 4.20546015 -16.79899444 3.8129467 -19.41015625 3.16015625 C-20.209375 2.96550781 -21.00859375 2.77085937 -21.83203125 2.5703125 C-22.4353125 2.41433594 -23.03859375 2.25835937 -23.66015625 2.09765625 C-23.66015625 1.76765625 -23.66015625 1.43765625 -23.66015625 1.09765625 C-15.76118342 0.00905198 -7.96248903 -0.03149434 0 0 Z M115.33984375 14.09765625 C116.32984375 14.59265625 116.32984375 14.59265625 117.33984375 15.09765625 C116.34984375 15.59265625 116.34984375 15.59265625 115.33984375 16.09765625 C115.33984375 15.43765625 115.33984375 14.77765625 115.33984375 14.09765625 Z " fill="#D1A123" transform="translate(360.66015625,335.90234375)"/>
<path d="M0 0 C0.99 0 1.98 0 3 0 C3 84.15 3 168.3 3 255 C2.01 255.33 1.02 255.66 0 256 C0 171.52 0 87.04 0 0 Z " fill="#6F6513" transform="translate(489,126)"/>
<path d="M0 0 C1.39961191 0.00186888 2.79922448 0.00329056 4.19883728 0.00428772 C7.85332091 0.00807589 11.50776375 0.01787385 15.16223145 0.0289917 C18.90307056 0.03928609 22.64391638 0.04380241 26.38476562 0.04882812 C33.70314344 0.05950005 41.02148784 0.0765311 48.33984375 0.09765625 C48.33984375 1.41765625 48.33984375 2.73765625 48.33984375 4.09765625 C48.99984375 4.09765625 49.65984375 4.09765625 50.33984375 4.09765625 C50.32824219 4.731875 50.31664062 5.36609375 50.3046875 6.01953125 C50.23108495 13.63213772 50.56671338 21.18881388 50.98413086 28.78637695 C51.2711092 34.169395 51.41946525 39.51451551 51.27734375 44.90625 C51.27717279 47.19315657 51.27717279 47.19315657 51.90234375 49.7578125 C52.33984375 52.09765625 52.33984375 52.09765625 51.33984375 54.09765625 C51.14717985 57.73196388 51.14717985 57.73196388 52.33984375 61.09765625 C52.51457087 66.25210641 52.18660964 71.01706093 51.33984375 76.09765625 C52.32984375 76.09765625 53.31984375 76.09765625 54.33984375 76.09765625 C54.60796875 75.45828125 54.87609375 74.81890625 55.15234375 74.16015625 C56.33984375 72.09765625 56.33984375 72.09765625 59.33984375 71.09765625 C59.33984375 70.43765625 59.33984375 69.77765625 59.33984375 69.09765625 C59.99984375 69.09765625 60.65984375 69.09765625 61.33984375 69.09765625 C61.83484375 67.61265625 61.83484375 67.61265625 62.33984375 66.09765625 C64.27734375 63.91015625 64.27734375 63.91015625 66.33984375 62.09765625 C66.99984375 62.09765625 67.65984375 62.09765625 68.33984375 62.09765625 C68.33984375 61.43765625 68.33984375 60.77765625 68.33984375 60.09765625 C70.71484375 57.47265625 70.71484375 57.47265625 73.33984375 55.09765625 C73.99984375 55.09765625 74.65984375 55.09765625 75.33984375 55.09765625 C73.99984877 58.10447425 72.54139084 60.09528234 70.15234375 62.34765625 C67.5408252 64.87773451 65.08952246 67.4686525 62.71484375 70.22265625 C54.99888608 79.14692944 54.99888608 79.14692944 50.33984375 82.09765625 C49.34984375 82.09765625 48.35984375 82.09765625 47.33984375 82.09765625 C47.33984375 56.35765625 47.33984375 30.61765625 47.33984375 4.09765625 C29.00022949 4.1372513 29.00022949 4.1372513 10.66064453 4.18774414 C8.36881558 4.19066357 6.0769861 4.19321206 3.78515625 4.1953125 C1.98679321 4.20298645 1.98679321 4.20298645 0.15209961 4.21081543 C-0.98461182 4.21093628 -2.12132324 4.21105713 -3.29248047 4.21118164 C-4.28287323 4.21340225 -5.27326599 4.21562286 -6.29367065 4.21791077 C-8.66015625 4.09765625 -8.66015625 4.09765625 -10.66015625 3.09765625 C-11.2634375 3.26136719 -11.86671875 3.42507813 -12.48828125 3.59375 C-15.12479943 4.20546015 -16.79899444 3.8129467 -19.41015625 3.16015625 C-20.209375 2.96550781 -21.00859375 2.77085937 -21.83203125 2.5703125 C-22.4353125 2.41433594 -23.03859375 2.25835937 -23.66015625 2.09765625 C-23.66015625 1.76765625 -23.66015625 1.43765625 -23.66015625 1.09765625 C-15.76118342 0.00905198 -7.96248903 -0.03149434 0 0 Z " fill="#9F761A" transform="translate(360.66015625,335.90234375)"/>
<path d="M0 0 C0.66 0 1.32 0 2 0 C1.56956717 2.72607456 1.12540824 5.43874675 0.5234375 8.1328125 C-0.87927494 14.47642249 -1.41182657 20.70585479 -1.75390625 27.19140625 C-2 30 -2 30 -3 31 C-4.35132034 45.56257356 -2.73743734 59.92081839 1 74 C1.33 74.33 1.66 74.66 2 75 C2.50390861 77.60658182 2.89991416 80.22398907 3.3046875 82.84765625 C3.99304979 85.9684898 5.04969107 88.7986461 6.20654297 91.77124023 C7.68500461 95.92412527 8.6281289 100.21099286 9.625 104.5 C9.8415625 105.39847656 10.058125 106.29695313 10.28125 107.22265625 C11.51985735 112.47526891 12.43567157 117.63260963 13 123 C12.34 123 11.68 123 11 123 C11 120.69 11 118.38 11 116 C10.34 116 9.68 116 9 116 C5.93206792 107.49160169 4.9423435 98.93563368 4 90 C3.34 90 2.68 90 2 90 C0.70592448 87.41184895 0.5207016 85.05807215 0.125 82.1875 C-0.78162115 70.86177971 -0.78162115 70.86177971 -5 61 C-6.19005925 53.04629464 -6.25324869 45.09302734 -6.3125 37.0625 C-6.34150391 35.75603516 -6.37050781 34.44957031 -6.40039062 33.10351562 C-6.44684508 26.00313102 -5.93481225 20.53572856 -2.92407227 14.08032227 C-1.71956123 11.36866083 -1.43555735 8.88663299 -1.3125 5.9375 C-1.07374631 1.07374631 -1.07374631 1.07374631 0 0 Z " fill="#73967D" transform="translate(202,233)"/>
<path d="M0 0 C0.66 0 1.32 0 2 0 C2.10546143 0.57331055 2.21092285 1.14662109 2.31958008 1.73730469 C5.08606475 19.43392963 5.08606475 19.43392963 10.5 36.375 C12.45491774 41.09938455 13.30205714 45.87862857 14.25390625 50.890625 C14.84459048 54.14090654 14.84459048 54.14090654 17 57 C17.36141955 59.32914823 17.69699525 61.66253478 18 64 C18.495 64.495 18.495 64.495 19 65 C19.16207569 66.76782555 19.27843751 68.53988854 19.375 70.3125 C19.94203539 77.79027927 21.76419236 84.69799038 23.828125 91.8828125 C27.3728957 104.35901527 29.97426823 119.87936527 24 132 C22.515 132.99 22.515 132.99 21 134 C21.31723022 133.22885864 21.31723022 133.22885864 21.64086914 132.44213867 C24.06530501 125.99571526 24.50282028 120.16133125 24.4375 113.3125 C24.43266602 111.73009521 24.43266602 111.73009521 24.42773438 110.11572266 C24.29805878 102.83041356 23.39129262 96.67206943 20.875 89.8046875 C19.91696512 86.73384356 19.84818176 84.19767175 20 81 C19.34 81 18.68 81 18 81 C15.8983267 75.2897933 14.64761762 70.04443113 14 64 C13.67 63.67 13.34 63.34 13 63 C12.83792431 61.23217445 12.72156249 59.46011146 12.625 57.6875 C12.03279659 49.90557703 10.46914664 42.42284156 7.5 35.1875 C5.52817868 30.24767679 4.74497689 25.04747019 3.76171875 19.83984375 C2.86832545 15.33622522 1.74603499 10.91991433 0.55078125 6.48828125 C0 4 0 4 0 0 Z " fill="#BBC6B5" transform="translate(214,294)"/>
<path d="M0 0 C0.99 0 1.98 0 3 0 C3 0.66 3 1.32 3 2 C3.66 2 4.32 2 5 2 C6.625 3.375 6.625 3.375 8 5 C8 5.66 8 6.32 8 7 C8.928125 7.2165625 8.928125 7.2165625 9.875 7.4375 C12 8 12 8 14 9 C14 9.99 14 10.98 14 12 C14.99 12 15.98 12 17 12 C17 12.66 17 13.32 17 14 C17.99 14 18.98 14 20 14 C20 14.66 20 15.32 20 16 C20.99 16.33 21.98 16.66 23 17 C23 17.66 23 18.32 23 19 C23.99 19 24.98 19 26 19 C26 19.66 26 20.32 26 21 C26.763125 21.268125 27.52625 21.53625 28.3125 21.8125 C30.88988618 22.95134505 32.26954864 23.81416671 34 26 C34 26.66 34 27.32 34 28 C34.99 28 35.98 28 37 28 C37 28.66 37 29.32 37 30 C37.928125 30.4640625 37.928125 30.4640625 38.875 30.9375 C40.25 31.625 41.625 32.3125 43 33 C43 33.66 43 34.32 43 35 C43.54527344 35.20882812 44.09054687 35.41765625 44.65234375 35.6328125 C47.87169866 37.50764481 50.1146455 40.11992489 52.5625 42.875 C53.04396484 43.40480469 53.52542969 43.93460937 54.02148438 44.48046875 C56.49459315 47.22231974 58.84727835 49.99923649 61 53 C57.04322598 51.32598022 54.15535787 48.86850715 51 46 C51 45.34 51 44.68 51 44 C49.68 43.67 48.36 43.34 47 43 C47 42.34 47 41.68 47 41 C46.34 41 45.68 41 45 41 C45 40.34 45 39.68 45 39 C44.01 39 43.02 39 42 39 C40.6164076 37.71889593 39.29779632 36.36794747 38 35 C36.73954268 33.86338674 35.46755899 32.73949152 34.1875 31.625 C33.50042969 31.02558594 32.81335938 30.42617188 32.10546875 29.80859375 C30.72320349 28.62123046 29.33019202 27.44624161 27.92578125 26.28515625 C27.29027344 25.75792969 26.65476562 25.23070312 26 24.6875 C25.4225 24.21699219 24.845 23.74648438 24.25 23.26171875 C23 22 23 22 23 20 C22.01 20 21.02 20 20 20 C20 19.34 20 18.68 20 18 C19.071875 17.5359375 19.071875 17.5359375 18.125 17.0625 C16.75 16.375 15.375 15.6875 14 15 C14 14.34 14 13.68 14 13 C13.34 13 12.68 13 12 13 C10.375 11.625 10.375 11.625 9 10 C9 9.34 9 8.68 9 8 C8.34 8 7.68 8 7 8 C7 7.34 7 6.68 7 6 C6.360625 5.731875 5.72125 5.46375 5.0625 5.1875 C3 4 3 4 2 1 C1.34 0.67 0.68 0.34 0 0 Z " fill="#8F6616" transform="translate(333,360)"/>
<path d="M0 0 C5.61 0 11.22 0 17 0 C17.495 1.485 17.495 1.485 18 3 C19.9812585 3.72045764 21.98504093 4.38001259 24 5 C26.875 6.25 26.875 6.25 29 8 C29.3125 11.1875 29.3125 11.1875 29 14 C28.14341797 14.03867188 28.14341797 14.03867188 27.26953125 14.078125 C18.94416332 14.66050368 10.02530978 16.31646015 3 21 C1.61169918 21.27108833 0.21406461 21.49649031 -1.1875 21.6875 C-6.09275735 22.66855147 -8.67097002 24.98676293 -12.21875 28.38671875 C-14.32765014 30.29675331 -16.29125763 31.17232872 -19 32 C-21.21771064 32.85790183 -21.21771064 32.85790183 -23 34 C-23.33 34.99 -23.66 35.98 -24 37 C-24.99 36.67 -25.98 36.34 -27 36 C-17.43603065 25.8403509 -4.70918966 17.74183793 9 15 C10.31358679 14.64988569 11.62607579 14.2956296 12.9375 13.9375 C17.24624244 12.84960678 21.58013662 12.38878428 26 12 C26 10.68 26 9.36 26 8 C25.278125 7.896875 24.55625 7.79375 23.8125 7.6875 C20.74041242 6.93654526 18.63996279 5.7124083 16 4 C15.34 3.67 14.68 3.34 14 3 C14 2.34 14 1.68 14 1 C7.65347547 1.3274897 2.58916805 1.70382397 -3 5 C-3.66 5 -4.32 5 -5 5 C-5 4.34 -5 3.68 -5 3 C-3.35 2.67 -1.7 2.34 0 2 C0 1.34 0 0.68 0 0 Z " fill="#849D8B" transform="translate(239,181)"/>
<path d="M0 0 C1.39961191 0.00186888 2.79922448 0.00329056 4.19883728 0.00428772 C7.85332091 0.00807589 11.50776375 0.01787385 15.16223145 0.0289917 C18.90307056 0.03928609 22.64391638 0.04380241 26.38476562 0.04882812 C33.70314344 0.05950005 41.02148784 0.0765311 48.33984375 0.09765625 C48.00984375 1.08765625 47.67984375 2.07765625 47.33984375 3.09765625 C46.78111572 3.09241943 46.2223877 3.08718262 45.64672852 3.08178711 C43.06527881 3.06073906 40.48384726 3.04790891 37.90234375 3.03515625 C36.58459961 3.02258789 36.58459961 3.02258789 35.24023438 3.00976562 C31.13153271 2.99460436 27.12800785 3.06552631 23.05078125 3.59375 C16.8527181 4.36619057 10.63885417 4.2426986 4.40234375 4.22265625 C3.17193359 4.22652344 1.94152344 4.23039062 0.67382812 4.234375 C-0.49728516 4.23308594 -1.66839844 4.23179687 -2.875 4.23046875 C-4.47009399 4.22877686 -4.47009399 4.22877686 -6.09741211 4.22705078 C-8.66015625 4.09765625 -8.66015625 4.09765625 -10.66015625 3.09765625 C-11.2634375 3.26136719 -11.86671875 3.42507813 -12.48828125 3.59375 C-15.12479943 4.20546015 -16.79899444 3.8129467 -19.41015625 3.16015625 C-20.209375 2.96550781 -21.00859375 2.77085937 -21.83203125 2.5703125 C-22.4353125 2.41433594 -23.03859375 2.25835937 -23.66015625 2.09765625 C-23.66015625 1.76765625 -23.66015625 1.43765625 -23.66015625 1.09765625 C-15.76118342 0.00905198 -7.96248903 -0.03149434 0 0 Z " fill="#837920" transform="translate(360.66015625,335.90234375)"/>
<path d="M0 0 C0.99 0.495 0.99 0.495 2 1 C1.01 1.495 1.01 1.495 0 2 C0 1.34 0 0.68 0 0 Z M-2 2 C-1.34 2.33 -0.68 2.66 0 3 C-0.71285156 3.7734375 -1.42570312 4.546875 -2.16015625 5.34375 C-8.36914172 12.07750764 -8.36914172 12.07750764 -14.4375 18.9375 C-21.95586295 27.59446119 -29.78410971 36.00158916 -38 44 C-38.99 43.67 -39.98 43.34 -41 43 C-39.69386058 39.08158173 -38.16870152 36.67359191 -35 34 C-34.34 34 -33.68 34 -33 34 C-33 33.34 -33 32.68 -33 32 C-30.625 29.375 -30.625 29.375 -28 27 C-27.34 27 -26.68 27 -26 27 C-26 26.34 -26 25.68 -26 25 C-24.64453125 23.66796875 -24.64453125 23.66796875 -22.8125 22.1875 C-18.87787512 18.9271556 -15.32382856 15.3994759 -11.8125 11.6875 C-10 10 -10 10 -8 10 C-7.7525 9.4225 -7.505 8.845 -7.25 8.25 C-5.83316683 5.6997003 -4.12372463 3.98214299 -2 2 Z " fill="#C18E1D" transform="translate(476,350)"/>
<path d="M0 0 C0.99 0.33 1.98 0.66 3 1 C2.5875 1.43755615 2.175 1.8751123 1.75 2.32592773 C-9.28293099 14.0188439 -9.28293099 14.0188439 -20 26 C-19.33131686 29.11332248 -19.33131686 29.11332248 -16.9375 30.1875 C-16.298125 30.455625 -15.65875 30.72375 -15 31 C-15.66 32.32 -16.32 33.64 -17 35 C-19.9375 33.6875 -19.9375 33.6875 -23 32 C-23.33 31.01 -23.66 30.02 -24 29 C-24.99 29.33 -25.98 29.66 -27 30 C-26.875 27.1875 -26.875 27.1875 -26 24 C-23.1875 22.25 -23.1875 22.25 -20 21 C-16.89718772 19.79033445 -16.89718772 19.79033445 -15.09423828 17.16308594 C-13.9040996 14.81042446 -12.55300964 13.23771925 -10.7421875 11.328125 C-10.11699219 10.66425781 -9.49179687 10.00039063 -8.84765625 9.31640625 C-8.19667969 8.63449219 -7.54570312 7.95257813 -6.875 7.25 C-6.21628906 6.55261719 -5.55757813 5.85523438 -4.87890625 5.13671875 C-3.25672226 3.42049511 -1.63034621 1.70846565 0 0 Z " fill="#D6A623" transform="translate(434,394)"/>
<path d="M0 0 C0.77943466 0.00222061 1.55886932 0.00444122 2.36192322 0.00672913 C3.24276077 0.00680466 4.12359833 0.00688019 5.03112793 0.00695801 C5.98841293 0.01211929 6.94569794 0.01728058 7.93199158 0.02259827 C9.39480812 0.02472069 9.39480812 0.02472069 10.88717651 0.02688599 C14.01542675 0.03250319 17.14360656 0.04505859 20.27183533 0.05775452 C22.38706867 0.0627673 24.50230313 0.06733059 26.61753845 0.07142639 C31.81482829 0.0824782 37.01207678 0.09923305 42.20933533 0.12025452 C42.20933533 0.45025452 42.20933533 0.78025452 42.20933533 1.12025452 C41.29160339 1.14998352 41.29160339 1.14998352 40.35533142 1.18031311 C28.9538818 1.56453623 17.57528268 2.05723788 6.20933533 3.05775452 C5.32165466 3.13235901 4.433974 3.2069635 3.51939392 3.28382874 C-3.05078582 3.89661109 -9.05048144 5.2549335 -15.35316467 7.24525452 C-18.9645958 8.1645279 -22.08007938 8.27170698 -25.79066467 8.12025452 C-25.79066467 8.78025452 -25.79066467 9.44025452 -25.79066467 10.12025452 C-26.38234436 10.30201233 -26.97402405 10.48377014 -27.58363342 10.67103577 C-32.00317267 12.07692509 -35.91606592 13.49552633 -39.79066467 16.12025452 C-40.12066467 15.46025452 -40.45066467 14.80025452 -40.79066467 14.12025452 C-36.04066467 11.12025452 -36.04066467 11.12025452 -33.79066467 11.12025452 C-33.79066467 10.46025452 -33.79066467 9.80025452 -33.79066467 9.12025452 C-32.14066467 9.12025452 -30.49066467 9.12025452 -28.79066467 9.12025452 C-28.79066467 8.46025452 -28.79066467 7.80025452 -28.79066467 7.12025452 C-27.83546936 6.9384967 -26.88027405 6.75673889 -25.89613342 6.56947327 C-17.65700712 4.96764911 -7.77654223 0.52224425 0 0 Z " fill="#6D957A" transform="translate(262.79066467285156,230.87974548339844)"/>
<path d="M0 0 C2.58186812 3.79686489 1.71416445 6.63566172 1 11 C1.33 11.99 1.66 12.98 2 14 C2.17190054 19.15701618 1.84719634 23.91682196 1 29 C1.99 29 2.98 29 4 29 C4.268125 28.360625 4.53625 27.72125 4.8125 27.0625 C6 25 6 25 9 24 C9 23.34 9 22.68 9 22 C9.66 22 10.32 22 11 22 C11.33 21.01 11.66 20.02 12 19 C13.9375 16.8125 13.9375 16.8125 16 15 C16.66 15 17.32 15 18 15 C18 14.34 18 13.68 18 13 C20.375 10.375 20.375 10.375 23 8 C23.66 8 24.32 8 25 8 C23.66000502 11.006818 22.20154709 12.99762609 19.8125 15.25 C17.18018454 17.8000556 14.70890363 20.41407598 12.3125 23.1875 C11.73371094 23.85265625 11.15492188 24.5178125 10.55859375 25.203125 C10.04425781 25.79609375 9.52992188 26.3890625 9 27 C6.13378264 30.28771991 4.41931825 31.6416769 0 32 C-1.78923831 30.21076169 -1.13033737 27.55156583 -1.1328125 25.13671875 C-1.13410156 23.93982422 -1.13539063 22.74292969 -1.13671875 21.50976562 C-1.13285156 20.24841797 -1.12898438 18.98707031 -1.125 17.6875 C-1.12886719 16.43775391 -1.13273437 15.18800781 -1.13671875 13.90039062 C-1.13542969 12.69962891 -1.13414062 11.49886719 -1.1328125 10.26171875 C-1.13168457 9.15787842 -1.13055664 8.05403809 -1.12939453 6.91674805 C-1.01893014 4.42671391 -0.72471628 2.37098091 0 0 Z " fill="#794A10" transform="translate(411,383)"/>
<path d="M0 0 C1.30593996 3.94545541 1.1082006 7.91748679 1.0625 12.01953125 C1.05871338 12.79632736 1.05492676 13.57312347 1.05102539 14.37345886 C1.03473923 17.68596939 1.0066831 20.99835488 0.97949219 24.31079102 C0.96130276 26.73453185 0.94927162 29.15825206 0.9375 31.58203125 C0.92505249 32.69019951 0.92505249 32.69019951 0.91235352 33.820755 C0.89137669 38.31244971 1.30578853 42.55002084 2 47 C2.18660331 50.00070674 2.18497812 52.99391999 2.1875 56 C2.19974609 56.76828125 2.21199219 57.5365625 2.22460938 58.328125 C2.23721493 63.26950405 1.57670088 67.31352151 0 72 C-0.33 72 -0.66 72 -1 72 C-1.02315598 63.0553337 -1.04093173 54.11067769 -1.05181217 45.16598797 C-1.05703386 41.0127475 -1.06411859 36.85952751 -1.07543945 32.70629883 C-1.08629366 28.69926057 -1.09228223 24.69224203 -1.09487724 20.6851902 C-1.09672691 19.15535992 -1.10033877 17.62553074 -1.10573006 16.09570885 C-1.11297407 13.95530223 -1.11398952 11.81497743 -1.11352539 9.67456055 C-1.115746 8.45544479 -1.11796661 7.23632904 -1.12025452 5.98027039 C-1 3 -1 3 0 0 Z " fill="#001A08" transform="translate(23,298)"/>
<path d="M0 0 C0.99 0.33 1.98 0.66 3 1 C3.0291544 4.39581516 3.04685068 7.79159786 3.0625 11.1875 C3.07087891 12.14720703 3.07925781 13.10691406 3.08789062 14.09570312 C3.09111328 15.02705078 3.09433594 15.95839844 3.09765625 16.91796875 C3.10289307 17.77156982 3.10812988 18.6251709 3.11352539 19.50463867 C2.82967004 25.74396244 1.00130377 28.21795403 -3 33 C-3.5259375 34.6396875 -3.5259375 34.6396875 -4.0625 36.3125 C-4.371875 37.199375 -4.68125 38.08625 -5 39 C-8.21040889 40.2555422 -11.44952197 40.11505346 -14.859375 40.09765625 C-15.97441406 40.09443359 -17.08945312 40.09121094 -18.23828125 40.08789062 C-19.39714844 40.07951172 -20.55601562 40.07113281 -21.75 40.0625 C-22.92433594 40.05798828 -24.09867187 40.05347656 -25.30859375 40.04882812 C-28.20578072 40.03705094 -31.10286454 40.02060326 -34 40 C-34 39.67 -34 39.34 -34 39 C-32.94087402 38.97812622 -32.94087402 38.97812622 -31.86035156 38.95581055 C-28.65635326 38.88126833 -25.45338984 38.78462795 -22.25 38.6875 C-21.13882812 38.66494141 -20.02765625 38.64238281 -18.8828125 38.61914062 C-17.81289063 38.58369141 -16.74296875 38.54824219 -15.640625 38.51171875 C-14.16384277 38.47244263 -14.16384277 38.47244263 -12.65722656 38.43237305 C-9.61959099 37.9381014 -8.2184216 37.10110737 -6 35 C-5.20376178 32.90584196 -5.20376178 32.90584196 -5 31 C-4.34 31 -3.68 31 -3 31 C-2.66550773 29.33356554 -2.33245145 27.6668428 -2 26 C-1.82339844 25.13503906 -1.64679688 24.27007812 -1.46484375 23.37890625 C0.00463161 15.53081934 0.21223842 7.97073161 0 0 Z " fill="#38714D" transform="translate(315,193)"/>
<path d="M0 0 C4.62080477 0.84563748 7.30884407 3.215849 10 7 C10.25853542 12.17070845 6.39953261 16.44856907 3.08349609 20.12451172 C0.79401307 22.51051167 -1.53205115 24.85401379 -3.875 27.1875 C-4.66519531 27.99380859 -5.45539063 28.80011719 -6.26953125 29.63085938 C-10.26437616 33.62902779 -13.70174818 36.93010419 -19 39 C-17.53033642 35.60140297 -15.61962486 33.35036291 -13 30.75 C-12.29875 30.04359375 -11.5975 29.3371875 -10.875 28.609375 C-9 27 -9 27 -7 27 C-6.79503906 26.46503906 -6.59007812 25.93007813 -6.37890625 25.37890625 C-4.42608279 22.00987088 -1.74166135 19.61047251 1.0625 16.9375 C5.34743563 13.04576685 5.34743563 13.04576685 8 8 C7.4225 7.59007812 6.845 7.18015625 6.25 6.7578125 C5.13625 5.94957031 5.13625 5.94957031 4 5.125 C3.2575 4.59132813 2.515 4.05765625 1.75 3.5078125 C1.1725 3.01023437 0.595 2.51265625 0 2 C0 1.34 0 0.68 0 0 Z " fill="#996A16" transform="translate(394,413)"/>
<path d="M0 0 C0.66 0 1.32 0 2 0 C4.5739094 6.12835572 5.98146912 12.2101271 7.25390625 18.73046875 C7.8716423 21.9051979 7.8716423 21.9051979 9.02783203 24.35449219 C10.77296472 29.10342686 10.32737444 34.05576343 10.3125 39.0625 C10.32861328 40.15111328 10.34472656 41.23972656 10.36132812 42.36132812 C10.36197266 43.40869141 10.36261719 44.45605469 10.36328125 45.53515625 C10.36626221 46.487854 10.36924316 47.44055176 10.37231445 48.42211914 C9.93762785 51.43186069 9.09925076 52.8271811 7 55 C6.34 55 5.68 55 5 55 C5.33 53.948125 5.66 52.89625 6 51.8125 C8.88717851 40.11942703 6.61581576 27.72546725 3.57421875 16.2890625 C2.22187222 10.89807567 1.14564662 5.43800264 0 0 Z " fill="#618156" transform="translate(233,369)"/>
<path d="M0 0 C0.66 0 1.32 0 2 0 C2.10546143 0.57331055 2.21092285 1.14662109 2.31958008 1.73730469 C5.08606475 19.43392963 5.08606475 19.43392963 10.5 36.375 C12.45491774 41.09938455 13.30205714 45.87862857 14.25390625 50.890625 C14.84459048 54.14090654 14.84459048 54.14090654 17 57 C17.36141955 59.32914823 17.69699525 61.66253478 18 64 C18.495 64.495 18.495 64.495 19 65 C19.14115161 67.67058851 19.04247107 70.32432238 19 73 C18.67 73 18.34 73 18 73 C17.73445313 71.99839844 17.46890625 70.99679687 17.1953125 69.96484375 C16.83857569 68.62238679 16.48180293 67.27993939 16.125 65.9375 C15.95097656 65.28072266 15.77695313 64.62394531 15.59765625 63.94726562 C14.74631738 60.74686209 13.87279859 57.55789174 12.95703125 54.375 C12.08043985 51.28367361 11.30511079 48.1881782 10.5625 45.0625 C9.72624224 41.65863676 8.84868014 38.42150787 7.5 35.1875 C5.52817868 30.24767679 4.74497689 25.04747019 3.76171875 19.83984375 C2.86832545 15.33622522 1.74603499 10.91991433 0.55078125 6.48828125 C0 4 0 4 0 0 Z " fill="#8BA590" transform="translate(214,294)"/>
<path d="M0 0 C13.45313677 -0.54621758 13.45313677 -0.54621758 20 3 C21.6642135 3.67276716 23.32986582 4.34206835 25 5 C25 5.33 25 5.66 25 6 C22.66705225 6.04241723 20.33297433 6.04092937 18 6 C17.505 5.505 17.505 5.505 17 5 C6.32064237 4.25169666 -2.83369994 3.81415334 -12 10 C-13.32449634 10.6840553 -14.65543233 11.35629199 -16 12 C-16 11.34 -16 10.68 -16 10 C-13.92111288 8.52313012 -11.86716626 7.18604262 -9.6875 5.875 C-9.09259766 5.50246094 -8.49769531 5.12992188 -7.88476562 4.74609375 C-3.38338484 2 -3.38338484 2 0 2 C0 1.34 0 0.68 0 0 Z " fill="#A4B3A8" transform="translate(251,144)"/>
<path d="M0 0 C2 1 2 1 2.8515625 2.85546875 C4.3516571 7.37848126 5.37173481 11.16744753 5 16 C5.99 16.33 6.98 16.66 8 17 C8.20496094 18.07121094 8.40992188 19.14242188 8.62109375 20.24609375 C8.89302709 21.64326851 9.16517352 23.04040181 9.4375 24.4375 C9.57220703 25.14455078 9.70691406 25.85160156 9.84570312 26.58007812 C10.28406898 30.08429264 10.28406898 30.08429264 12 33 C12.07244053 35.01964199 12.08377188 37.04167124 12.0625 39.0625 C12.05347656 40.16722656 12.04445312 41.27195312 12.03515625 42.41015625 C12.02355469 43.26480469 12.01195312 44.11945313 12 45 C12.66 45 13.32 45 14 45 C14 47.64 14 50.28 14 53 C10.79551772 50.44860514 10.48002537 48.29771059 10 44.3125 C9.27924859 38.97293333 8.46673281 33.67450844 7.5 28.375 C7.38140625 27.68833252 7.2628125 27.00166504 7.140625 26.29418945 C6.52338073 22.93079521 5.92768659 20.89152988 4 18 C3.2863409 15.68060793 2.6252708 13.34476551 2 11 C1.62875 9.783125 1.2575 8.56625 0.875 7.3125 C0 4 0 4 0 0 Z " fill="#D0D9CF" transform="translate(214,350)"/>
<path d="M0 0 C0.66 0.33 1.32 0.66 2 1 C1.14277344 1.845625 0.28554688 2.69125 -0.59765625 3.5625 C-7.92447332 10.76207678 -7.92447332 10.76207678 -14.8125 18.375 C-18.17633146 22.34736378 -22.00357678 25.67829758 -26 29 C-26.66 28.67 -27.32 28.34 -28 28 C-27.06558465 26.72689688 -26.12732889 25.456612 -25.1875 24.1875 C-24.66542969 23.47980469 -24.14335937 22.77210938 -23.60546875 22.04296875 C-22.15747502 20.20038793 -20.76898495 18.53635131 -19 17 C-18.34 17 -17.68 17 -17 17 C-17 16.34 -17 15.68 -17 15 C-14.625 12.375 -14.625 12.375 -12 10 C-11.34 10 -10.68 10 -10 10 C-9.731875 9.401875 -9.46375 8.80375 -9.1875 8.1875 C-7.0104407 4.17712761 -4.04230446 2.07297665 0 0 Z " fill="#A67718" transform="translate(378,449)"/>
<path d="M0 0 C5.61 0 11.22 0 17 0 C17.33 0.99 17.66 1.98 18 3 C19.9812585 3.72045764 21.98504093 4.38001259 24 5 C26.875 6.25 26.875 6.25 29 8 C29.3125 11.1875 29.3125 11.1875 29 14 C28.34773438 14.06058594 27.69546875 14.12117187 27.0234375 14.18359375 C22.31283783 14.63519991 17.65798362 15.14195039 13 16 C16.74525799 12.25474201 20.98270909 12.31090051 26 12 C26 10.68 26 9.36 26 8 C24.9171875 7.8453125 24.9171875 7.8453125 23.8125 7.6875 C20.74041242 6.93654526 18.63996279 5.7124083 16 4 C15.34 3.67 14.68 3.34 14 3 C14 2.34 14 1.68 14 1 C7.65347547 1.3274897 2.58916805 1.70382397 -3 5 C-3.66 5 -4.32 5 -5 5 C-5 4.34 -5 3.68 -5 3 C-3.35 2.67 -1.7 2.34 0 2 C0 1.34 0 0.68 0 0 Z " fill="#B2BFB5" transform="translate(239,181)"/>
<path d="M0 0 C0.66 0 1.32 0 2 0 C3.80435866 4.69814141 5.12470816 9.01873155 5.4375 14.0625 C5.75309883 18.41373491 6.95823608 21.21966852 9.08203125 24.9765625 C10.44933991 27.99045988 10.62761722 30.94002403 10.82421875 34.21484375 C10.81169733 36.02316766 10.81169733 36.02316766 12 37 C12.04080783 38.99958364 12.04254356 41.00045254 12 43 C12.66 43 13.32 43 14 43 C14 45.97 14 48.94 14 52 C11.95435642 48.93153463 11.59434157 47.43074077 11.0625 43.875 C10.18788555 38.68197673 8.79363389 33.93911991 7 29 C4.92453511 23.26542165 3.6501289 18.06786977 3 12 C2.67 11.67 2.34 11.34 2 11 C1.60545777 9.15400312 1.25823134 7.29774178 0.9375 5.4375 C0.76089844 4.42558594 0.58429688 3.41367187 0.40234375 2.37109375 C0.26957031 1.58863281 0.13679687 0.80617188 0 0 Z " fill="#C2CFC4" transform="translate(200,296)"/>
<path d="M0 0 C0.66 0 1.32 0 2 0 C1.1023753 5.58210359 0.05359153 11.13324033 -1 16.6875 C-1.17789063 17.63689453 -1.35578125 18.58628906 -1.5390625 19.56445312 C-1.71179688 20.47517578 -1.88453125 21.38589844 -2.0625 22.32421875 C-2.21847656 23.15010498 -2.37445313 23.97599121 -2.53515625 24.8269043 C-3 27 -3 27 -4 30 C-4.14777936 31.69867188 -4.24747066 33.40177489 -4.31640625 35.10546875 C-4.37924805 36.57983398 -4.37924805 36.57983398 -4.44335938 38.08398438 C-4.48267578 39.10814453 -4.52199219 40.13230469 -4.5625 41.1875 C-4.60568359 42.22326172 -4.64886719 43.25902344 -4.69335938 44.32617188 C-4.79944366 46.8839819 -4.90150146 49.44188845 -5 52 C-5.33 52 -5.66 52 -6 52 C-6.10001808 47.91079921 -6.17200015 43.82208689 -6.21972656 39.73193359 C-6.23965342 38.34508844 -6.2668056 36.95832518 -6.30175781 35.57177734 C-6.49245907 27.80350552 -6.28552374 21.20510704 -2.92626953 14.06054688 C-1.71146126 11.35812679 -1.43534283 8.88149189 -1.3125 5.9375 C-1.07374631 1.07374631 -1.07374631 1.07374631 0 0 Z " fill="#3E6C4F" transform="translate(202,233)"/>
<path d="M0 0 C2.475 0.99 2.475 0.99 5 2 C5 2.66 5 3.32 5 4 C5.928125 4.4640625 5.928125 4.4640625 6.875 4.9375 C8.25 5.625 9.625 6.3125 11 7 C11 7.66 11 8.32 11 9 C11.556875 9.268125 12.11375 9.53625 12.6875 9.8125 C13.450625 10.204375 14.21375 10.59625 15 11 C16.2684375 11.6496875 16.2684375 11.6496875 17.5625 12.3125 C21.22013932 14.84471184 22.64129995 17.53259072 23.6875 21.8125 C23.790625 22.534375 23.89375 23.25625 24 24 C22.35 25.32 20.7 26.64 19 28 C19.350625 27.443125 19.70125 26.88625 20.0625 26.3125 C21.28193911 23.30455019 21.11354113 22.04367909 20 19 C17.73867276 16.36178488 15.68648484 14.38965751 12.66015625 12.671875 C9.56769503 10.72830173 7.24710364 8.4763157 4.6875 5.875 C3.80449219 4.98554688 2.92148437 4.09609375 2.01171875 3.1796875 C0 1 0 1 0 0 Z " fill="#B5871D" transform="translate(382,400)"/>
<path d="M0 0 C0 0.99 0 1.98 0 3 C-2.43383589 5.43383589 -3.06562261 5.25684029 -6.40209961 5.28710938 C-7.76878029 5.30723083 -7.76878029 5.30723083 -9.16307068 5.32775879 C-10.14953079 5.33303589 -11.13599091 5.33831299 -12.15234375 5.34375 C-13.66895348 5.3656842 -13.66895348 5.3656842 -15.21620178 5.38806152 C-18.4565943 5.4346834 -21.69692428 5.46881525 -24.9375 5.5 C-29.19684481 5.54105545 -33.45575122 5.59471044 -37.71484375 5.65625 C-38.69927963 5.6615271 -39.68371552 5.6668042 -40.69798279 5.67224121 C-42.06939171 5.69236267 -42.06939171 5.69236267 -43.46850586 5.71289062 C-44.27299667 5.72018188 -45.07748749 5.72747314 -45.90635681 5.73498535 C-48.30351529 5.88036146 -48.30351529 5.88036146 -51 8 C-53.26171875 8.4140625 -53.26171875 8.4140625 -55.6875 8.625 C-56.49574219 8.69976562 -57.30398437 8.77453125 -58.13671875 8.8515625 C-59.05904297 8.92503906 -59.05904297 8.92503906 -60 9 C-59.67 8.34 -59.34 7.68 -59 7 C-56.68529088 6.27129528 -54.3494053 5.60760482 -52 5 C-51.01 4.67 -50.02 4.34 -49 4 C-47.53308692 3.9008533 -46.06224998 3.85451785 -44.59204102 3.84228516 C-43.2603463 3.82689194 -43.2603463 3.82689194 -41.90174866 3.81118774 C-40.94546066 3.80388641 -39.98917267 3.79658508 -39.00390625 3.7890625 C-36.98111161 3.76100044 -34.95832525 3.73233602 -32.93554688 3.703125 C-29.74471206 3.66181651 -26.55403301 3.62493022 -23.36303711 3.59863281 C-20.28466859 3.57106037 -17.20700435 3.5251964 -14.12890625 3.4765625 C-13.17464249 3.47330963 -12.22037872 3.47005676 -11.23719788 3.46670532 C-10.34624924 3.45013885 -9.4553006 3.43357239 -8.53735352 3.41650391 C-7.75586441 3.40841705 -6.97437531 3.4003302 -6.16920471 3.39199829 C-3.47814736 2.90569569 -2.05180808 1.76198633 0 0 Z " fill="#CCD8CF" transform="translate(309,226)"/>
<path d="M0 0 C1.37562854 1.28965176 2.70766393 2.62689293 4 4 C4 4.66 4 5.32 4 6 C4.99 6 5.98 6 7 6 C7 7.65 7 9.3 7 11 C7.99 11 8.98 11 10 11 C10.33 12.65 10.66 14.3 11 16 C10.01 16 9.02 16 8 16 C8 15.34 8 14.68 8 14 C7.34 14 6.68 14 6 14 C6 13.34 6 12.68 6 12 C5.34 12 4.68 12 4 12 C4 11.01 4 10.02 4 9 C3.01 9 2.02 9 1 9 C1 8.34 1 7.68 1 7 C0.34 7 -0.32 7 -1 7 C-1.66 5.35 -2.32 3.7 -3 2 C-2.34 2 -1.68 2 -1 2 C-0.67 1.34 -0.34 0.68 0 0 Z " fill="#083918" transform="translate(49,437)"/>
<path d="M0 0 C0.99 0 1.98 0 3 0 C3 0.66 3 1.32 3 2 C3.66 2 4.32 2 5 2 C6.625 3.375 6.625 3.375 8 5 C8 5.66 8 6.32 8 7 C8.928125 7.2165625 8.928125 7.2165625 9.875 7.4375 C12 8 12 8 14 9 C14 9.99 14 10.98 14 12 C14.99 12 15.98 12 17 12 C17 12.66 17 13.32 17 14 C17.99 14 18.98 14 20 14 C20 14.66 20 15.32 20 16 C20.99 16.33 21.98 16.66 23 17 C24.1875 19.5625 24.1875 19.5625 25 22 C24.34 22 23.68 22 23 22 C23 21.34 23 20.68 23 20 C22.01 20 21.02 20 20 20 C20 19.34 20 18.68 20 18 C19.071875 17.5359375 19.071875 17.5359375 18.125 17.0625 C16.75 16.375 15.375 15.6875 14 15 C14 14.34 14 13.68 14 13 C13.34 13 12.68 13 12 13 C10.375 11.625 10.375 11.625 9 10 C9 9.34 9 8.68 9 8 C8.34 8 7.68 8 7 8 C7 7.34 7 6.68 7 6 C6.360625 5.731875 5.72125 5.46375 5.0625 5.1875 C3 4 3 4 2 1 C1.34 0.67 0.68 0.34 0 0 Z " fill="#7C6B1C" transform="translate(333,360)"/>
<path d="M0 0 C1.33332095 2.6666419 0.67102033 4.16680303 0 7 C-0.66 7 -1.32 7 -2 7 C-1.63594807 15.37319442 -0.72489411 23.15887581 1.4765625 31.2578125 C1.99475258 33.97250978 1.92139359 35.4323832 1 38 C-3.45516081 27.06894474 -4.64811569 17.76690043 -4 6 C-3.34 5.67 -2.68 5.34 -2 5 C-1.27840576 3.35636866 -0.60648579 1.68949614 0 0 Z " fill="#A3B6A8" transform="translate(212,256)"/>
<path d="M0 0 C-1.33999498 3.006818 -2.79845291 4.99762609 -5.1875 7.25 C-8.45862722 10.41890449 -11.44934877 13.75135612 -14.421875 17.19921875 C-16.19649815 19.2242219 -18.05776935 21.13545857 -20 23 C-20.6875 21.1875 -20.6875 21.1875 -21 19 C-19.6875 17.25 -19.6875 17.25 -18 16 C-17.34 16 -16.68 16 -16 16 C-16 15.34 -16 14.68 -16 14 C-15.34 14 -14.68 14 -14 14 C-13.67 13.01 -13.34 12.02 -13 11 C-11.0625 8.8125 -11.0625 8.8125 -9 7 C-8.34 7 -7.68 7 -7 7 C-7 6.34 -7 5.68 -7 5 C-2.47619048 0 -2.47619048 0 0 0 Z " fill="#8B5A12" transform="translate(436,391)"/>
<path d="M0 0 C0 0.99 0 1.98 0 3 C-0.99 3.66 -1.98 4.32 -3 5 C-1.125 1.125 -1.125 1.125 0 0 Z M-5 5 C-4.34 5.33 -3.68 5.66 -3 6 C-5.3521504 8.522721 -7.70709587 11.04281698 -10.0625 13.5625 C-10.71927734 14.26697266 -11.37605469 14.97144531 -12.05273438 15.69726562 C-16.28383279 20.22016393 -20.5896978 24.65160885 -25 29 C-25.33 28.01 -25.66 27.02 -26 26 C-25.34 26 -24.68 26 -24 26 C-23.773125 25.443125 -23.54625 24.88625 -23.3125 24.3125 C-21.02290287 20.27844791 -17.63932715 17.5169028 -14.0625 14.625 C-10.59064533 11.80242724 -7.81373138 8.46228649 -5 5 Z " fill="#CC9920" transform="translate(463,365)"/>
<path d="M0 0 C3 2 3 2 3.73046875 3.9609375 C5.00426364 10.68918744 5.21148593 17.16195479 5 24 C5.66 24.33 6.32 24.66 7 25 C5.35 24.67 3.7 24.34 2 24 C1.93941406 22.85402344 1.87882813 21.70804687 1.81640625 20.52734375 C1.73193011 18.99738703 1.64728573 17.46743959 1.5625 15.9375 C1.52318359 15.18533203 1.48386719 14.43316406 1.44335938 13.65820312 C1.18419281 9.05301259 0.7200579 4.55633276 0 0 Z " fill="#C0CBB8" transform="translate(228,404)"/>
<path d="M0 0 C0.33 0 0.66 0 1 0 C2.68442142 5.83579076 3.26143011 10.94460204 3.125 17 C3.11597656 17.77472656 3.10695312 18.54945313 3.09765625 19.34765625 C3.07439388 21.23190843 3.0385364 23.11599832 3 25 C6.71599191 25.20086443 7.77208445 25.1519437 11 23 C10.6875 24.875 10.6875 24.875 10 27 C9.01 27.66 8.02 28.32 7 29 C4.546875 27.8828125 4.546875 27.8828125 2 26 C1.328125 23.1171875 1.328125 23.1171875 1.25 19.875 C1.46783274 16.1232456 1.46783274 16.1232456 0 13 C-0.07258946 10.81360547 -0.08373783 8.62499611 -0.0625 6.4375 C-0.05347656 5.23996094 -0.04445312 4.04242188 -0.03515625 2.80859375 C-0.02355469 1.88175781 -0.01195312 0.95492188 0 0 Z " fill="#627F4E" transform="translate(227,403)"/>
<path d="M0 0 C4.62214663 0.84588304 7.30681012 3.21670945 10 7 C10.1875 9.5625 10.1875 9.5625 9 12 C7.36211225 13.69495701 5.69043855 15.35744922 4 17 C2.67548828 18.32451172 2.67548828 18.32451172 1.32421875 19.67578125 C-1.1171875 22.1171875 -3.55859375 24.55859375 -6 27 C-6 24 -6 24 -4.82250977 22.51367188 C-4.28424561 22.00384766 -3.74598145 21.49402344 -3.19140625 20.96875 C-2.60939453 20.40542969 -2.02738281 19.84210938 -1.42773438 19.26171875 C-0.81220703 18.68035156 -0.19667969 18.09898437 0.4375 17.5 C1.64903365 16.34846854 2.85626744 15.19239165 4.05859375 14.03125 C4.86768188 13.26651367 4.86768188 13.26651367 5.69311523 12.48632812 C7.24370727 10.91713057 7.24370727 10.91713057 8 8 C7.4225 7.59007812 6.845 7.18015625 6.25 6.7578125 C5.13625 5.94957031 5.13625 5.94957031 4 5.125 C3.2575 4.59132813 2.515 4.05765625 1.75 3.5078125 C1.1725 3.01023437 0.595 2.51265625 0 2 C0 1.34 0 0.68 0 0 Z " fill="#6D3E0E" transform="translate(394,413)"/>
<path d="M0 0 C5.75 -0.125 5.75 -0.125 8 1 C8 1.66 8 2.32 8 3 C9.32 3.66 10.64 4.32 12 5 C11.34 6.32 10.68 7.64 10 9 C7.0625 7.6875 7.0625 7.6875 4 6 C3.67 5.01 3.34 4.02 3 3 C2.01 3.33 1.02 3.66 0 4 C0 2.68 0 1.36 0 0 Z " fill="#FBDA47" transform="translate(407,420)"/>
<path d="M0 0 C0.99 0 1.98 0 3 0 C3 0.99 3 1.98 3 3 C2.01 3 1.02 3 0 3 C0 4.65 0 6.3 0 8 C-0.66 8 -1.32 8 -2 8 C-2 8.66 -2 9.32 -2 10 C-2.66 10 -3.32 10 -4 10 C-4.33 11.65 -4.66 13.3 -5 15 C-5.66 15 -6.32 15 -7 15 C-7 15.66 -7 16.32 -7 17 C-7.66 17 -8.32 17 -9 17 C-8.25 12.25 -8.25 12.25 -6 10 C-5.71125 9.236875 -5.4225 8.47375 -5.125 7.6875 C-3.8296464 4.59304417 -2.29826541 2.43755422 0 0 Z " fill="#D09A1B" transform="translate(475,422)"/>
<path d="M0 0 C5.10998096 1.48323417 8.02003049 4.60464894 11.625 8.3125 C12.19734375 8.88162109 12.7696875 9.45074219 13.359375 10.03710938 C21 17.7754633 21 17.7754633 21 23 C19.125 22.375 19.125 22.375 17 21 C16.71769531 20.08089844 16.43539063 19.16179687 16.14453125 18.21484375 C14.84752646 14.57172109 13.32822002 12.85330895 10.5625 10.1875 C9.78003906 9.41792969 8.99757813 8.64835938 8.19140625 7.85546875 C6.05177952 5.81076687 6.05177952 5.81076687 3 5 C3 4.34 3 3.68 3 3 C2.01 3 1.02 3 0 3 C0 2.01 0 1.02 0 0 Z " fill="#8EA394" transform="translate(283,154)"/>
<path d="M0 0 C1.46373047 0.02707031 1.46373047 0.02707031 2.95703125 0.0546875 C3.69308594 0.07789063 4.42914063 0.10109375 5.1875 0.125 C5.1875 0.785 5.1875 1.445 5.1875 2.125 C5.8475 2.455 6.5075 2.785 7.1875 3.125 C6.54683594 3.11339844 5.90617187 3.10179687 5.24609375 3.08984375 C-6.17338766 2.91575499 -6.17338766 2.91575499 -15.52734375 8.84765625 C-15.95144531 9.26917969 -16.37554687 9.69070312 -16.8125 10.125 C-17.4725 9.795 -18.1325 9.465 -18.8125 9.125 C-17.59114002 7.99152945 -16.36000819 6.86858413 -15.125 5.75 C-14.44050781 5.12351563 -13.75601563 4.49703125 -13.05078125 3.8515625 C-8.81825821 0.58668434 -5.28456181 -0.12733884 0 0 Z " fill="#65836F" transform="translate(247.8125,181.875)"/>
<path d="M0 0 C-1.58015623 1.60729631 -3.16425652 3.21071576 -4.75 4.8125 C-5.63171875 5.70582031 -6.5134375 6.59914063 -7.421875 7.51953125 C-9.53448851 9.55212152 -11.60794665 11.31773818 -14 13 C-14.66 12.67 -15.32 12.34 -16 12 C-15.06558465 10.72689688 -14.12732889 9.456612 -13.1875 8.1875 C-12.66542969 7.47980469 -12.14335937 6.77210938 -11.60546875 6.04296875 C-8.81618085 2.49358294 -4.87225816 -2.43612908 0 0 Z " fill="#B0821A" transform="translate(366,465)"/>
<path d="M0 0 C2.475 0.495 2.475 0.495 5 1 C5 2.32 5 3.64 5 5 C5.99 4.67 6.98 4.34 8 4 C10 7 10 7 9.625 9.6875 C9.41875 10.450625 9.2125 11.21375 9 12 C8.01 11.67 7.02 11.34 6 11 C6 10.01 6 9.02 6 8 C5.34 8 4.68 8 4 8 C4 7.01 4 6.02 4 5 C3.34 5 2.68 5 2 5 C2 4.01 2 3.02 2 2 C1.34 2 0.68 2 0 2 C0 1.34 0 0.68 0 0 Z " fill="#032B12" transform="translate(37,427)"/>
<path d="M0 0 C0.66 0.33 1.32 0.66 2 1 C-1.79000885 4.47326459 -5.03043879 7.38825042 -10 9 C-12.21771064 9.85790183 -12.21771064 9.85790183 -14 11 C-14.33 11.99 -14.66 12.98 -15 14 C-15.99 13.67 -16.98 13.34 -18 13 C-15.28463035 10.07720628 -12.18209558 7.76937094 -9 5.375 C-7.4221875 4.18003906 -7.4221875 4.18003906 -5.8125 2.9609375 C-3 1 -3 1 0 0 Z " fill="#BFCAC1" transform="translate(230,204)"/>
<path d="M0 0 C3.6733827 2.68834153 3.94072086 6.40600502 4.625 10.625 C4.74979736 11.33978516 4.87459473 12.05457031 5.00317383 12.79101562 C5.86617017 17.84415413 6.54401322 22.89294811 7 28 C4.04367923 24.68924296 3.46548258 22.04976384 2.9375 17.6875 C2.21197641 12.24679589 2.21197641 12.24679589 0.875 6.9375 C0 4 0 4 0 0 Z " fill="#719171" transform="translate(218,368)"/>
<path d="M0 0 C2.0625 0.4375 2.0625 0.4375 4 1 C3.34 1.66 2.68 2.32 2 3 C1.01 3 0.02 3 -1 3 C-1 3.66 -1 4.32 -1 5 C-1.66 5 -2.32 5 -3 5 C-3 5.99 -3 6.98 -3 8 C-3.99 8 -4.98 8 -6 8 C-6 8.66 -6 9.32 -6 10 C-7.32 10 -8.64 10 -10 10 C-10 10.66 -10 11.32 -10 12 C-10.99 12 -11.98 12 -13 12 C-13 11.34 -13 10.68 -13 10 C-11.33779419 8.99260254 -9.66979326 7.99477045 -8 7 C-5.24290131 4.78271222 -2.50361639 2.50361639 0 0 Z " fill="#E4AD21" transform="translate(448,455)"/>
<path d="M0 0 C0.66 0 1.32 0 2 0 C2 0.66 2 1.32 2 2 C3.1446875 2.4021875 3.1446875 2.4021875 4.3125 2.8125 C6.88988618 3.95134505 8.26954864 4.81416671 10 7 C10 7.66 10 8.32 10 9 C10.99 9 11.98 9 13 9 C12.67 9.66 12.34 10.32 12 11 C7.01767779 9.72545246 4.29731516 7.95677819 1 4 C0.1875 1.6875 0.1875 1.6875 0 0 Z " fill="#926F1A" transform="translate(357,379)"/>
<path d="M0 0 C3.8560966 5.78414491 5.14911053 12.19288423 6 19 C6.33 19.33 6.66 19.66 7 20 C7.04080783 21.99958364 7.04254356 24.00045254 7 26 C5.13535164 23.20302746 4.64975169 21.97247336 4.0625 18.8125 C3.4211195 15.6517769 2.59712681 12.79609598 1.375 9.8125 C0.03078607 6.44183292 -0.27430432 3.657391 0 0 Z " fill="#6C8F76" transform="translate(197,288)"/>
<path d="M0 0 C0.33 0 0.66 0 1 0 C1.125 5.75 1.125 5.75 0 8 C-0.66 8 -1.32 8 -2 8 C-2 10.97 -2 13.94 -2 17 C0.31 17.33 2.62 17.66 5 18 C5 18.33 5 18.66 5 19 C-1.15234375 19.09765625 -1.15234375 19.09765625 -3 19 C-4.69895444 17.30104556 -4.25236921 15.19794753 -4.3125 12.875 C-4.29101417 7.38178897 -3.154244 4.43565563 0 0 Z " fill="#8EA194" transform="translate(222,175)"/>
<path d="M0 0 C0 0.66 0 1.32 0 2 C-0.96421875 2.06058594 -1.9284375 2.12117188 -2.921875 2.18359375 C-4.18515625 2.26738281 -5.4484375 2.35117187 -6.75 2.4375 C-8.00296875 2.51871094 -9.2559375 2.59992188 -10.546875 2.68359375 C-13.81400249 2.88058225 -13.81400249 2.88058225 -16.15625 3.59375 C-18.59432735 4.13095348 -20.34193711 3.66451572 -22.75 3.0625 C-23.54921875 2.86785156 -24.3484375 2.67320312 -25.171875 2.47265625 C-25.77515625 2.31667969 -26.3784375 2.16070312 -27 2 C-27 1.67 -27 1.34 -27 1 C-18.02243049 -0.3300103 -9.05168034 -0.08788039 0 0 Z " fill="#677122" transform="translate(364,336)"/>
<path d="M0 0 C0.66 0.33 1.32 0.66 2 1 C-1.37304958 5.67126797 -4.68100471 10.16089308 -9 14 C-9.66 14 -10.32 14 -11 14 C-11 14.99 -11 15.98 -11 17 C-11.66 16.67 -12.32 16.34 -13 16 C-11.69386058 12.08158173 -10.16870152 9.67359191 -7 7 C-6.34 7 -5.68 7 -5 7 C-5 6.34 -5 5.68 -5 5 C-3.37446717 3.29319053 -1.70884005 1.62339805 0 0 Z " fill="#A26F15" transform="translate(448,377)"/>
<path d="M0 0 C0.33 0 0.66 0 1 0 C1.09765625 6.15234375 1.09765625 6.15234375 1 8 C0.67 8.33 0.34 8.66 0 9 C-0.53690911 12.35680989 -0.96627385 15.72245328 -1.40234375 19.09375 C-1.59957031 20.0528125 -1.79679688 21.011875 -2 22 C-2.66 22.33 -3.32 22.66 -4 23 C-3.32545897 15.1753241 -1.73123042 7.65443386 0 0 Z " fill="#BDC9BF" transform="translate(204,232)"/>
<path d="M0 0 C3.875 1.875 3.875 1.875 5 3 C5.68566191 5.99197923 5.93116731 7.14862892 5 10 C1.57501204 13.85233728 -2.35449231 17.67724615 -7 20 C-5.1603458 15.62960457 -2.08141883 13.18030415 1.41796875 10.09765625 C3.28121522 8.09528846 3.28121522 8.09528846 2.86328125 5.43359375 C2.03781904 2.79173631 2.03781904 2.79173631 0 0 Z " fill="#D9AB25" transform="translate(402,416)"/>
<path d="M0 0 C-1 1 -1 1 -3.5625 1.0625 C-4.7690625 1.0315625 -4.7690625 1.0315625 -6 1 C-6 1.66 -6 2.32 -6 3 C-6.59167969 3.18175781 -7.18335938 3.36351562 -7.79296875 3.55078125 C-12.212508 4.95667057 -16.12540125 6.37527181 -20 9 C-20.33 8.34 -20.66 7.68 -21 7 C-16.25 4 -16.25 4 -14 4 C-14 3.34 -14 2.68 -14 2 C-12.35 2 -10.7 2 -9 2 C-9 1.34 -9 0.68 -9 0 C-2.25 -1.125 -2.25 -1.125 0 0 Z " fill="#92AA98" transform="translate(243,238)"/>
<path d="M0 0 C-1 3 -1 3 -2.8125 4.1875 C-5 5 -5 5 -9 5 C-9 5.66 -9 6.32 -9 7 C-9.99 7 -10.98 7 -12 7 C-12 6.34 -12 5.68 -12 5 C-7.992312 0.992312 -5.89044908 -0.70124394 0 0 Z " fill="#E5AF21" transform="translate(435,467)"/>
<path d="M0 0 C0.99 0.495 0.99 0.495 2 1 C2.59765625 3.03125 2.59765625 3.03125 3.0625 5.5 C3.45864843 8.53773221 3.45864843 8.53773221 5 11 C5.14115161 13.67058851 5.04247107 16.32432238 5 19 C1.45285025 15.29862635 1.48270035 11.90745357 1 7 C0.67 6.67 0.34 6.34 0 6 C-0.04080783 4.00041636 -0.04254356 1.99954746 0 0 Z " fill="#CED7CE" transform="translate(227,351)"/>
<path d="M0 0 C0.99 0.33 1.98 0.66 3 1 C-2.91684902 8.84245077 -2.91684902 8.84245077 -7.4375 9.5 C-8.283125 9.335 -9.12875 9.17 -10 9 C-10 8.34 -10 7.68 -10 7 C-6.66666667 5.33333333 -3.33333333 3.66666667 0 2 C0 1.34 0 0.68 0 0 Z " fill="#DCB026" transform="translate(418,411)"/>
<path d="M0 0 C2.94586829 4.41880243 3.0985616 6.67767339 3 12 C3.66 12 4.32 12 5 12 C5 14.64 5 17.28 5 20 C2.40815161 17.77362965 1.60103746 16.3798448 1.26953125 12.98828125 C1.18896484 12.23095703 1.10839844 11.47363281 1.02539062 10.69335938 C0.95513672 9.90767578 0.88488281 9.12199219 0.8125 8.3125 C0.73064453 7.51521484 0.64878906 6.71792969 0.56445312 5.89648438 C0.36449155 3.932156 0.18067746 1.96619588 0 0 Z " fill="#9BAE97" transform="translate(223,383)"/>
<path d="M0 0 C0.66 0 1.32 0 2 0 C1.21912565 4.80654698 0.34161295 9.59055539 -0.5625 14.375 C-0.70107422 15.11105469 -0.83964844 15.84710938 -0.98242188 16.60546875 C-1.32105934 18.40375048 -1.66045191 20.20188999 -2 22 C-2.33 22 -2.66 22 -3 22 C-3.125 14.25 -3.125 14.25 -2 12 C-1.68744353 9.14792222 -1.48962518 6.29503146 -1.28125 3.43359375 C-1 1 -1 1 0 0 Z " fill="#567B62" transform="translate(202,233)"/>
<path d="M0 0 C5.61 0 11.22 0 17 0 C17.33 0.66 17.66 1.32 18 2 C16.98679688 1.96519531 15.97359375 1.93039063 14.9296875 1.89453125 C13.5781417 1.86637405 12.22657781 1.83907597 10.875 1.8125 C9.87726563 1.77479492 9.87726563 1.77479492 8.859375 1.73632812 C4.09945342 1.66632928 1.10689966 2.67844396 -3 5 C-3.66 5 -4.32 5 -5 5 C-5 4.34 -5 3.68 -5 3 C-3.35 2.67 -1.7 2.34 0 2 C0 1.34 0 0.68 0 0 Z " fill="#D2D9D3" transform="translate(239,181)"/>
<path d="M0 0 C0 3 0 3 -2.125 5.25 C-3.07375 6.1575 -4.0225 7.065 -5 8 C-7.04096475 10.29907271 -9.02461274 12.64446949 -11 15 C-11.33 14.34 -11.66 13.68 -12 13 C-10.92075721 9.76227162 -10.24856932 9.13000136 -7.6875 7.0625 C-4.97828318 4.8271174 -2.43784342 2.53535716 0 0 Z " fill="#B68319" transform="translate(461,365)"/>
<path d="M0 0 C0 3.67363035 -1.21562679 4.46567166 -3.5546875 7.10546875 C-6.30850606 10.71520389 -8.09473986 14.89761008 -10 19 C-10.69921875 17.34375 -10.69921875 17.34375 -11 15 C-9.70703125 12.34375 -9.70703125 12.34375 -7.8125 9.5 C-7.20019531 8.5615625 -6.58789062 7.623125 -5.95703125 6.65625 C-4.1351124 4.18338609 -2.23393517 2.10019625 0 0 Z " fill="#809385" transform="translate(234,156)"/>
<path d="M0 0 C2 2 2 2 2.1875 5.6875 C2.09629967 9.52492934 1.63059333 13.21644004 1 17 C1.99 17 2.98 17 4 17 C4 17.66 4 18.32 4 19 C2.68 19.33 1.36 19.66 0 20 C0 13.4 0 6.8 0 0 Z " fill="#69380E" transform="translate(411,395)"/>
<path d="M0 0 C4.31730413 0.47409648 6.33647461 3.03396703 9.25 6.0625 C10.14203125 6.98160156 11.0340625 7.90070313 11.953125 8.84765625 C12.62859375 9.55792969 13.3040625 10.26820313 14 11 C10.45595664 11 9.89732095 10.39010515 7.3125 8.125 C6.68988281 7.59132813 6.06726563 7.05765625 5.42578125 6.5078125 C4 5 4 5 4 3 C2.68 2.67 1.36 2.34 0 2 C0 1.34 0 0.68 0 0 Z " fill="#7D4F11" transform="translate(380,401)"/>
<path d="M0 0 C2.35448165 2.55068845 2.98327924 3.71017358 3.1875 7.25 C3.125625 8.1575 3.06375 9.065 3 10 C3.66 10 4.32 10 5 10 C5 12.97 5 15.94 5 19 C2.94147471 15.91221206 2.52296515 14.21650891 1.9375 10.625 C1.78152344 9.68914062 1.62554687 8.75328125 1.46484375 7.7890625 C1.31144531 6.86867188 1.15804687 5.94828125 1 5 C0.67326031 3.33202816 0.34206074 1.6648974 0 0 Z " fill="#BCCBBF" transform="translate(209,329)"/>
<path d="M0 0 C0 3.02194968 -0.48982562 5.23087373 -1.3125 8.125 C-1.55613281 9.01445312 -1.79976562 9.90390625 -2.05078125 10.8203125 C-2.36402344 11.53960937 -2.67726562 12.25890625 -3 13 C-3.99 13.33 -4.98 13.66 -6 14 C-5.34534272 11.21926527 -4.54651732 8.55682958 -3.5625 5.875 C-3.31628906 5.19179687 -3.07007813 4.50859375 -2.81640625 3.8046875 C-2 2 -2 2 0 0 Z " fill="#B0BEB4" transform="translate(211,218)"/>
<path d="M0 0 C2.62551287 1.31275643 2.69506505 2.3243582 3.625 5.0625 C5.0563123 9.55063506 5.25551673 13.31552667 5 18 C4.67 18 4.34 18 4 18 C3.52466572 16.33633001 3.04989765 14.67249598 2.578125 13.0078125 C2.02985092 11.10367143 1.453216 9.20776356 0.875 7.3125 C0 4 0 4 0 0 Z " fill="#A1B6A3" transform="translate(214,350)"/>
<path d="M0 0 C0.99 0.495 0.99 0.495 2 1 C2.37400786 3.32716 2.70764733 5.66117862 3 8 C3.33 8.33 3.66 8.66 4 9 C4.14115161 11.67058851 4.04247107 14.32432238 4 17 C3.67 17 3.34 17 3 17 C-0.44419134 5.47835991 -0.44419134 5.47835991 0 0 Z " fill="#628666" transform="translate(229,350)"/>
<path d="M0 0 C-2.60941495 1.73960997 -5.13276151 3.11661019 -7.9375 4.5 C-9.21947266 5.13421875 -9.21947266 5.13421875 -10.52734375 5.78125 C-11.34332031 6.1834375 -12.15929687 6.585625 -13 7 C-14.33378287 7.66576683 -15.66728567 8.33209676 -17 9 C-17 8.34 -17 7.68 -17 7 C-14.8046875 5.2734375 -14.8046875 5.2734375 -11.875 3.375 C-10.92367187 2.74335938 -9.97234375 2.11171875 -8.9921875 1.4609375 C-5.70320905 -0.14490838 -3.61036909 -0.28925806 0 0 Z " fill="#A5B2A8" transform="translate(252,147)"/>
<path d="M0 0 C0.33 0 0.66 0 1 0 C0.67 3.63 0.34 7.26 0 11 C-0.66 11 -1.32 11 -2 11 C-2 8.03 -2 5.06 -2 2 C-1.34 2 -0.68 2 0 2 C0 1.34 0 0.68 0 0 Z " fill="#031707" transform="translate(22,371)"/>
<path d="M0 0 C0.66 0.33 1.32 0.66 2 1 C-1.465 3.97 -1.465 3.97 -5 7 C-3.75023244 3.34683329 -3.32901247 2.21934164 0 0 Z M-8 8 C-7.34 8.33 -6.68 8.66 -6 9 C-6.99 9.66 -7.98 10.32 -9 11 C-8.67 10.01 -8.34 9.02 -8 8 Z " fill="#BD8E1E" transform="translate(364,464)"/>
<path d="M0 0 C0.33 1.32 0.66 2.64 1 4 C1.99 3.67 2.98 3.34 4 3 C3.67 4.98 3.34 6.96 3 9 C2.01 9 1.02 9 0 9 C0 6.03 0 3.06 0 0 Z " fill="#022B12" transform="translate(34,416)"/>
<path d="M0 0 C0.33 0 0.66 0 1 0 C1.3125 3.1875 1.3125 3.1875 1 7 C-1.5 9.9375 -1.5 9.9375 -4 12 C-4 10.68 -4 9.36 -4 8 C-3.34 8 -2.68 8 -2 8 C-1.855625 7.236875 -1.71125 6.47375 -1.5625 5.6875 C-1 3 -1 3 0 0 Z " fill="#588567" transform="translate(314,216)"/>
<path d="M0 0 C2.375 1.0625 2.375 1.0625 5 3 C6.3125 6.6875 6.3125 6.6875 7 10 C6.01 9.34 5.02 8.68 4 8 C4 7.34 4 6.68 4 6 C3.34 6 2.68 6 2 6 C1.34 4.02 0.68 2.04 0 0 Z " fill="#8BA392" transform="translate(305,177)"/>
<path d="M0 0 C2.875 -0.125 2.875 -0.125 6 0 C6.66 0.66 7.32 1.32 8 2 C6.68 2 5.36 2 4 2 C3.67 2.99 3.34 3.98 3 5 C3 4.34 3 3.68 3 3 C2.01 3.33 1.02 3.66 0 4 C0 2.68 0 1.36 0 0 Z " fill="#F5CB30" transform="translate(407,420)"/>
<path d="M0 0 C1.65 0 3.3 0 5 0 C5 0.66 5 1.32 5 2 C5.66 2 6.32 2 7 2 C7 2.99 7 3.98 7 5 C6.34 5 5.68 5 5 5 C5 4.34 5 3.68 5 3 C3.35 2.67 1.7 2.34 0 2 C0 1.34 0 0.68 0 0 Z " fill="#0B3A18" transform="translate(67,460)"/>
<path d="M0 0 C2.37948772 0.17625835 3.70225849 0.69719773 5.37890625 2.40234375 C6.62115486 3.90649092 7.81376056 5.45129851 9 7 C5.56072421 5.7580393 2.74792181 4.44259716 0 2 C0 1.34 0 0.68 0 0 Z " fill="#794B11" transform="translate(394,413)"/>
<path d="M0 0 C0.33 0 0.66 0 1 0 C1.36666667 7.33333333 1.36666667 7.33333333 -0.375 10.5 C-2 12 -2 12 -4 12 C-3.67 10.68 -3.34 9.36 -3 8 C-2.34 8 -1.68 8 -1 8 C-0.67 5.36 -0.34 2.72 0 0 Z " fill="#627D49" transform="translate(242,412)"/>
<path d="M0 0 C0.99 0.33 1.98 0.66 3 1 C-0.465 3.97 -0.465 3.97 -4 7 C-4.66 6.67 -5.32 6.34 -6 6 C-4.02 4.02 -2.04 2.04 0 0 Z " fill="#C5941E" transform="translate(434,394)"/>
<path d="M0 0 C2.39763185 2.39763185 2.34280586 3.33273498 2.625 6.625 C2.69976562 7.44226563 2.77453125 8.25953125 2.8515625 9.1015625 C2.90054688 9.72804688 2.94953125 10.35453125 3 11 C0.39665076 8.28817788 0.00543309 7.10866187 -0.1875 3.25 C-0.125625 2.1775 -0.06375 1.105 0 0 Z " fill="#4C7549" transform="translate(222,385)"/>
<path d="M0 0 C2.39763185 2.39763185 2.34280586 3.33273498 2.625 6.625 C2.69976562 7.44226563 2.77453125 8.25953125 2.8515625 9.1015625 C2.90054688 9.72804688 2.94953125 10.35453125 3 11 C0.39665076 8.28817788 0.00543309 7.10866187 -0.1875 3.25 C-0.125625 2.1775 -0.06375 1.105 0 0 Z " fill="#D3DCD4" transform="translate(222,331)"/>
<path d="M0 0 C0.33 0.66 0.66 1.32 1 2 C0.34 2 -0.32 2 -1 2 C-1.433125 2.928125 -1.433125 2.928125 -1.875 3.875 C-3 6 -3 6 -5 8 C-5.99 7.67 -6.98 7.34 -8 7 C-6 4 -6 4 -3 3 C-1.33289654 1.50014391 -1.33289654 1.50014391 0 0 Z " fill="#E6EAE6" transform="translate(218,214)"/>
<path d="M0 0 C0.66 0.33 1.32 0.66 2 1 C0.71034824 2.37562854 -0.62689293 3.70766393 -2 5 C-2.66 5 -3.32 5 -4 5 C-4.33 5.99 -4.66 6.98 -5 8 C-5.99 7.67 -6.98 7.34 -8 7 C-5.53058944 4.40062046 -2.81939117 2.20979308 0 0 Z " fill="#AAB9AE" transform="translate(220,210)"/>
<path d="M0 0 C2.62187494 1.04874998 3.79371361 1.64931313 5.25 4.125 C5.4975 4.74375 5.745 5.3625 6 6 C4.68 6 3.36 6 2 6 C1.34 4.02 0.68 2.04 0 0 Z " fill="#A27519" transform="translate(376,395)"/>
<path d="M0 0 C0.66 0.33 1.32 0.66 2 1 C-0.97 4.96 -0.97 4.96 -4 9 C-4.66 8.67 -5.32 8.34 -6 8 C-4.768606 4.30581799 -2.79208646 2.64890254 0 0 Z " fill="#AA7716" transform="translate(448,377)"/>
<path d="M0 0 C2.7558573 4.13378595 3.10756445 6.05203546 3 11 C0.39665076 8.28817788 0.00543309 7.10866187 -0.1875 3.25 C-0.125625 2.1775 -0.06375 1.105 0 0 Z " fill="#D8E1DA" transform="translate(207,318)"/>
<path d="M0 0 C1.64350079 3.28700157 2.41321669 5.47930015 3 9 C2.01 9 1.02 9 0 9 C0 6.03 0 3.06 0 0 Z " fill="#477750" transform="translate(215,357)"/>
<path d="M0 0 C2.76223278 2.76223278 2.57856291 5.20706617 3 9 C2.34 9 1.68 9 1 9 C-0.4783226 6.04335481 -0.06032783 3.25770263 0 0 Z " fill="#386E4A" transform="translate(203,314)"/>
<path d="M0 0 C0.66 0 1.32 0 2 0 C2.66 2.31 3.32 4.62 4 7 C3.34 7.66 2.68 8.32 2 9 C-0.29013653 5.5647952 -0.17842973 4.014669 0 0 Z " fill="#0A3F15" transform="translate(480,87)"/>
<path d="M0 0 C0.99 0 1.98 0 3 0 C3 0.66 3 1.32 3 2 C3.66 2 4.32 2 5 2 C5.33 2.99 5.66 3.98 6 5 C4.68 5 3.36 5 2 5 C2 4.34 2 3.68 2 3 C1.34 3 0.68 3 0 3 C0 2.01 0 1.02 0 0 Z " fill="#07411B" transform="translate(447,47)"/>
<path d="M0 0 C1.32 0 2.64 0 4 0 C3.67 0.99 3.34 1.98 3 3 C2.34 3 1.68 3 1 3 C1 3.66 1 4.32 1 5 C0.34 5 -0.32 5 -1 5 C-0.67 3.35 -0.34 1.7 0 0 Z " fill="#DCA51E" transform="translate(455,448)"/>
<path d="M0 0 C0.99 0.33 1.98 0.66 3 1 C3.33 3.64 3.66 6.28 4 9 C1.18167487 7.59083743 0.97406539 5.92219617 0 3 C0 2.01 0 1.02 0 0 Z " fill="#DCE3DB" transform="translate(219,366)"/>
<path d="M0 0 C0.66 0 1.32 0 2 0 C3.80411967 2.75924185 4.0127245 3.88972103 3.625 7.25 C3.41875 8.1575 3.2125 9.065 3 10 C2.67 10 2.34 10 2 10 C1.34 6.7 0.68 3.4 0 0 Z " fill="#30673D" transform="translate(226,338)"/>
<path d="M0 0 C-1 1 -1 1 -3.5625 1.0625 C-4.7690625 1.0315625 -4.7690625 1.0315625 -6 1 C-6 1.66 -6 2.32 -6 3 C-7.32 2.67 -8.64 2.34 -10 2 C-9.67 1.34 -9.34 0.68 -9 0 C-2.57142857 -1.28571429 -2.57142857 -1.28571429 0 0 Z " fill="#83A18C" transform="translate(243,238)"/>
</svg>
